<?xml version="1.0" encoding="UTF-8" standalone="no"?>
<!-- Created with Inkscape (http://www.inkscape.org/) -->

<svg
   width="210mm"
   height="297mm"
   viewBox="0 0 210 297"
   version="1.1"
   id="svg313"
   xml:space="preserve"
   inkscape:version="1.2.2 (732a01da63, 2022-12-09)"
   sodipodi:docname="logo-blck.svg"
   xmlns:inkscape="http://www.inkscape.org/namespaces/inkscape"
   xmlns:sodipodi="http://sodipodi.sourceforge.net/DTD/sodipodi-0.dtd"
   xmlns="http://www.w3.org/2000/svg"
   xmlns:svg="http://www.w3.org/2000/svg"><sodipodi:namedview
     id="namedview315"
     pagecolor="#ffffff"
     bordercolor="#999999"
     borderopacity="1"
     inkscape:showpageshadow="0"
     inkscape:pageopacity="0"
     inkscape:pagecheckerboard="0"
     inkscape:deskcolor="#d1d1d1"
     inkscape:document-units="mm"
     showgrid="false"
     inkscape:zoom="0.73851712"
     inkscape:cx="429.91556"
     inkscape:cy="561.25984"
     inkscape:window-width="1350"
     inkscape:window-height="1032"
     inkscape:window-x="208"
     inkscape:window-y="0"
     inkscape:window-maximized="0"
     inkscape:current-layer="layer1" /><defs
     id="defs310" /><g
     inkscape:label="Layer 1"
     inkscape:groupmode="layer"
     id="layer1"><path
       style="fill:#ffffff;stroke-width:0.264583"
       d="m 106.31996,160.20002 c -8.536748,-1.23456 -17.615208,-4.80481 -24.848558,-9.77211 -1.58411,-1.08784 -2.99229,-1.90862 -3.12928,-1.82395 -0.137,0.0847 -0.24909,0.66108 -0.24909,1.28093 0,1.869 -0.7253,3.80643 -1.90349,5.08461 -1.28956,1.39901 -1.7201,1.50762 -0.97582,0.24616 0.90493,-1.53374 1.30614,-3.53344 1.47444,-7.34889 0.0883,-2.00091 0.21842,-3.63802 0.28924,-3.63802 0.0708,0 1.15448,0.76127 2.40814,1.69171 12.54986,9.31425 25.760398,13.40033 38.962268,12.0512 9.63576,-0.9847 18.84901,-4.49458 28.15228,-10.72488 2.04404,-1.36887 3.85975,-2.48886 4.0349,-2.48886 0.21077,0 0.32001,0.51446 0.32304,1.52135 0.009,2.94934 0.51962,6.45594 1.17754,8.08478 0.35834,0.88715 0.61355,1.65098 0.56714,1.69739 -0.0464,0.0464 -0.56901,-0.44137 -1.16132,-1.08395 -1.17587,-1.27566 -1.57364,-2.33608 -1.82367,-4.86176 -0.09,-0.9095 -0.19931,-1.65364 -0.24282,-1.65364 -0.0435,0 -1.36575,0.84367 -2.9383,1.87484 -7.8439,5.14343 -17.636,8.7928 -26.88928,10.02123 -2.86477,0.38031 -10.10235,0.29378 -13.22736,-0.15814 z m -35.841998,-5.32179 c -0.10457,-0.25466 -0.19013,-1.8371 -0.19013,-3.51654 0,-2.99826 0.0161,-3.08006 0.88912,-4.52005 0.48902,-0.80659 1.28967,-1.93282 1.77924,-2.50273 0.74601,-0.86845 0.9357,-0.97195 1.17171,-0.63932 0.31236,0.44023 0.1514,3.44602 -0.31171,5.82083 -0.37111,1.90307 -2.37046,5.82083 -2.97053,5.82083 -0.0977,0 -0.26313,-0.20836 -0.3677,-0.46302 z m 85.137498,-1.15732 c -1.36674,-2.11462 -1.82451,-3.6962 -2.02771,-7.00577 -0.20408,-3.32388 0.0617,-3.65502 1.55434,-1.93672 1.4455,1.664 2.3484,3.64253 2.51854,5.51884 0.14468,1.59557 -0.32636,4.66732 -0.75647,4.93315 -0.12304,0.076 -0.70295,-0.60324 -1.2887,-1.5095 z m -46.83076,0.55093 c -5.09544,-0.69382 -8.791698,-1.87181 -11.630458,-3.70658 -7.80163,-5.04244 -10.34872,-14.03067 -6.27076,-22.12842 2.31003,-4.5871 6.98405,-8.48645 12.344968,-10.29891 2.0667,-0.69872 7.00405,-0.69905 8.88497,-5.3e-4 2.75246,1.0221 4.60019,2.79945 5.17683,4.97965 0.28508,1.07785 0.26463,1.45182 -0.15197,2.77812 -0.39834,1.26818 -0.81258,1.859 -2.40095,3.42439 -1.52734,1.50524 -2.48027,2.16822 -4.6637,3.24464 -3.57434,1.76207 -6.14819,2.40414 -9.63776,2.40414 -3.037458,0 -5.377708,-0.57068 -7.063148,-1.72236 -0.5457,-0.37288 -0.99219,-0.57017 -0.99219,-0.43841 0,0.56466 2.30068,3.05819 3.79779,4.11613 2.41192,1.70439 4.318368,2.32538 7.103878,2.31392 4.04422,-0.0166 8.11515,-1.72343 13.96916,-5.85678 3.08455,-2.17791 6.26931,-4.0258 8.20209,-4.75906 l 1.45521,-0.55209 -0.86723,0.69611 c -1.73397,1.39184 -2.3676,3.80358 -1.52753,5.81416 0.50195,1.20132 0.67732,1.16765 0.38883,-0.0746 -0.2979,-1.28283 -0.2946,-1.61572 0.0112,-1.13215 0.13538,0.21407 0.32828,0.30708 0.42866,0.2067 0.10039,-0.10039 -0.0217,-0.49422 -0.27133,-0.87519 -0.24963,-0.38097 -0.38482,-0.76172 -0.30043,-0.84611 0.0844,-0.0844 0.15343,-0.0145 0.15343,0.15525 0,0.16978 0.11907,0.30868 0.26459,0.30868 0.14552,0 0.26458,-0.24186 0.26458,-0.53747 0,-0.29561 0.16544,-0.60095 0.36764,-0.67854 0.22722,-0.0872 0.3113,-0.35651 0.22013,-0.70513 -0.14206,-0.54322 -0.15495,-0.54504 -0.34904,-0.0491 -0.16652,0.4255 -0.20477,0.43714 -0.22013,0.067 -0.0102,-0.24641 0.24602,-0.63337 0.56944,-0.8599 0.7839,-0.54907 1.14912,-0.52275 0.70985,0.0511 -0.19492,0.25467 -0.25022,0.37476 -0.12289,0.26688 0.12734,-0.10787 0.36749,-0.0833 0.53368,0.0546 0.21648,0.17966 0.30215,-0.006 0.30215,-0.65494 0,-1.15175 0.24085,-1.3872 0.85265,-0.83352 0.61799,0.55927 1.58887,0.5626 2.20219,0.008 0.44647,-0.40405 0.49408,-0.3872 0.74101,0.26228 0.14514,0.38175 0.18541,0.90348 0.0895,1.1594 -0.1582,0.42206 -0.12865,0.42843 0.31788,0.0684 0.45544,-0.36716 0.48081,-0.3523 0.33889,0.19844 -0.0844,0.32742 -0.0455,0.59531 0.0864,0.59531 0.34877,0 0.29381,-0.89851 -0.0777,-1.27 -0.45719,-0.45719 0.0947,-0.39107 0.78779,0.0944 0.32342,0.22653 0.57967,0.61349 0.56944,0.8599 -0.0152,0.36594 -0.0602,0.35108 -0.24598,-0.0812 -0.20775,-0.48345 -0.229,-0.48702 -0.24599,-0.0414 -0.0102,0.26829 -0.25949,0.55079 -0.55393,0.62779 -0.49095,0.12838 -0.49856,0.16687 -0.0919,0.46425 0.26477,0.19361 0.36054,0.45844 0.23768,0.65724 -0.16008,0.25902 -0.24986,0.26166 -0.40423,0.0119 -0.13091,-0.21183 -0.25601,-0.22792 -0.36764,-0.0473 -0.24072,0.38949 0.8893,0.68981 1.24755,0.33156 0.22024,-0.22024 0.20807,-0.44062 -0.0469,-0.84882 -0.28428,-0.45521 -0.28313,-0.53118 0.007,-0.43569 0.19302,0.0636 0.389,0.37422 0.4355,0.69025 0.0928,0.63093 0.45638,0.76399 0.66626,0.24385 0.10181,-0.2523 0.13841,-0.24782 0.15434,0.0189 0.0233,0.38959 -0.63985,1.15039 -0.83372,0.95652 -0.0681,-0.0681 -0.58831,-0.007 -1.15598,0.13552 l -1.03212,0.25938 1.12448,-0.0638 c 0.61846,-0.0351 1.12448,0.0433 1.12448,0.17406 0,0.1308 0.20089,0.0744 0.44641,-0.1253 0.39298,-0.31966 0.42465,-0.30511 0.26459,0.12153 -0.10001,0.26657 -0.18183,0.77258 -0.18183,1.12448 0,0.3519 -0.10256,0.63982 -0.2279,0.63982 -0.12534,0 -0.17112,-0.32742 -0.10174,-0.7276 0.12229,-0.70534 0.11333,-0.71141 -0.29286,-0.19844 -0.57308,0.72375 -0.53807,1.07032 0.11308,1.11936 0.6752,0.0509 1.3059,-1.29307 1.29736,-2.76451 -0.0133,-2.2949 -1.58364,-4.18112 -4.08201,-4.90322 l -1.3097,-0.37853 1.10854,-0.17726 c 0.6097,-0.0975 2.15156,-0.24921 3.42636,-0.33713 6.40854,-0.44202 14.18092,2.57557 19.26106,7.47801 1.61793,1.56134 3.56198,3.98816 3.56198,4.44653 0,0.24798 -1.01094,0.37332 -3.9026,0.48384 -7.77062,0.29699 -11.66547,1.75412 -20.12711,7.52991 -7.29236,4.97766 -13.01039,7.15287 -19.89112,7.56684 -1.23693,0.0744 -3.02286,0.0299 -3.96875,-0.0989 z m 10.87761,-5.56452 c 2.73072,-0.74742 5.67573,-2.27439 9.23072,-4.78608 4.1035,-2.89923 6.53402,-4.35844 8.97266,-5.38693 3.34539,-1.4109 5.40109,-1.80011 8.7738,-1.66115 3.33113,0.13725 3.26864,-0.10881 -0.27719,-1.09141 -6.69285,-1.85469 -12.36387,-0.42115 -21.7026,5.48607 -6.73917,4.26286 -10.26975,5.49918 -15.06663,5.27594 -2.00685,-0.0934 -3.38519,-0.32272 -4.89806,-0.81492 -1.15793,-0.37671 -2.14522,-0.64504 -2.19399,-0.59627 -0.18715,0.18715 1.66655,1.54319 3.09579,2.26468 4.12618,2.08288 9.43531,2.57738 14.0655,1.31007 z m 10.55364,-10.92846 c 0,-0.0549 -0.20836,-0.2633 -0.46302,-0.46302 -0.41965,-0.32911 -0.42901,-0.31975 -0.0999,0.0999 0.34564,0.44073 0.56292,0.58089 0.56292,0.36313 z m -1.25677,-0.79759 c 0.62349,-0.4733 0.58951,-0.77633 -0.0487,-0.43474 -0.67588,0.36171 -0.81115,0.34592 -0.81115,-0.0947 0,-0.4136 0.71277,-0.77104 1.08221,-0.54272 0.13239,0.0818 0.24071,0.0297 0.24071,-0.11586 0,-0.14554 -0.48232,-0.36093 -1.07182,-0.47863 -1.04493,-0.20864 -1.38351,-0.76522 -0.4386,-0.721 0.75392,0.0353 0.40997,-0.80488 -0.36658,-0.89545 -0.91277,-0.10646 -1.43449,0.52074 -1.04247,1.25323 0.21398,0.39982 0.55551,0.54717 1.27513,0.55013 0.72474,0.003 0.87864,0.0702 0.586,0.25595 -0.21828,0.13854 -0.72429,0.19455 -1.12447,0.12447 -0.42096,-0.0737 -0.72761,-0.008 -0.72761,0.15654 0,0.15619 0.11906,0.21039 0.26458,0.12045 0.14553,-0.0899 0.26459,-0.002 0.26459,0.19605 0,0.90238 1.08699,1.25726 1.91823,0.62626 z m 2.72897,-0.35772 c 0.16215,-0.32656 0.37349,-0.51507 0.46964,-0.41892 0.0962,0.0961 0.17482,0.0433 0.17482,-0.11742 0,-0.16073 -0.23812,-0.2743 -0.52916,-0.25238 -0.29104,0.0219 -0.52917,0.14817 -0.52917,0.28054 0,0.13237 -0.18147,0.0901 -0.40327,-0.094 -0.2218,-0.18407 -0.47976,-0.25818 -0.57326,-0.16469 -0.0935,0.0935 -0.0311,0.17 0.13868,0.17 0.16978,0 0.30868,0.17859 0.30868,0.39687 0,0.47842 -0.30871,0.5115 -0.74083,0.0794 -0.17639,-0.17639 -0.3175,-0.19991 -0.3175,-0.0529 0,0.98771 1.53117,1.12049 2.00137,0.17355 z m 0.68883,-1.77921 c 0.16368,-0.35924 0.42901,-0.57827 0.58964,-0.48675 0.16587,0.0945 0.19678,0.0624 0.0716,-0.0744 -0.12127,-0.13247 -0.29986,-0.25114 -0.39687,-0.26371 -0.097,-0.0126 -0.3778,-0.11193 -0.62396,-0.22081 -0.24616,-0.10888 -0.66151,-0.15676 -0.923,-0.1064 -0.6394,0.12313 -0.78425,0.93055 -0.16172,0.90141 0.26067,-0.0122 0.47395,0.0969 0.47395,0.2424 0,0.14553 -0.47625,0.23912 -1.05833,0.208 -0.75405,-0.0403 -0.94423,0.0156 -0.66146,0.19439 0.21828,0.13803 0.84591,0.25279 1.39474,0.25502 0.80631,0.003 1.05498,-0.12133 1.29546,-0.64911 z m -6.47767,0.0239 c -0.077,-0.20055 -0.0124,-0.49215 0.14343,-0.64799 0.20141,-0.20141 0.11892,-0.27097 -0.28526,-0.24052 -0.78413,0.0591 -0.75272,1.25314 0.033,1.25314 0.13683,0 0.18582,-0.16409 0.10887,-0.36463 z m 4.34278,-1.25085 c 0.79006,-0.84577 0.89224,-1.08211 0.59592,-1.37843 -0.0944,-0.0944 -0.45162,0.15361 -0.79375,0.55121 l -0.62206,0.72291 -0.63758,-0.74097 c -0.60846,-0.70713 -1.23136,-0.59035 -0.77697,0.14566 0.23747,0.38464 1.23905,1.48141 1.37454,1.50517 0.0508,0.009 0.43771,-0.3536 0.8599,-0.80555 z m -2.69402,-0.3338 c -0.0606,-0.0534 -0.56845,-0.18011 -1.12848,-0.28145 -0.69332,-0.12547 -0.96272,-0.0945 -0.84428,0.0972 0.0957,0.1548 0.60349,0.28146 1.12847,0.28146 0.52499,0 0.90492,-0.0437 0.84429,-0.0972 z m -0.54502,-0.93211 c 0.25024,-0.15857 0.27028,-0.28228 0.0661,-0.40844 -0.16105,-0.0995 -0.29283,-0.0549 -0.29283,0.0992 0,0.15411 -0.11906,0.2802 -0.26458,0.2802 -0.43996,0 -0.29669,-0.74875 0.19844,-1.03714 0.25466,-0.14833 0.32393,-0.2733 0.15393,-0.27773 -0.63405,-0.0165 -1.14612,0.32748 -1.14612,0.76992 0,0.78753 0.55603,1.03589 1.28502,0.57398 z m 3.10661,-0.53247 c 0.15983,-0.20413 0.41524,-0.29411 0.56759,-0.19996 0.43225,0.26715 0.61527,-0.55457 0.28499,-1.27948 -0.27574,-0.60517 -0.32369,-0.61967 -0.64595,-0.1953 -0.19145,0.25211 -0.35371,0.33933 -0.36056,0.19381 -0.007,-0.14552 -0.12971,-0.086 -0.273,0.13229 -0.23158,0.35278 -0.28948,0.35278 -0.52106,0 -0.1433,-0.21828 -0.26615,-0.27781 -0.273,-0.13229 -0.007,0.14552 -0.1732,0.0527 -0.36964,-0.20622 -0.34241,-0.45133 -0.36522,-0.45133 -0.55194,0 -0.10713,0.25894 -0.23032,0.74356 -0.27377,1.07692 -0.0641,0.49178 0.0169,0.57569 0.42938,0.44478 0.31779,-0.10086 0.56346,-0.0178 0.65535,0.22171 0.18194,0.47415 0.94145,0.44206 1.33161,-0.0563 z m -1.6135,-0.81947 c -0.0899,-0.14552 -0.0374,-0.26459 0.11667,-0.26459 0.15411,0 0.2802,0.11907 0.2802,0.26459 0,0.14552 -0.0525,0.26458 -0.11667,0.26458 -0.0642,0 -0.19027,-0.11906 -0.2802,-0.26458 z m 1.4552,0 c 0,-0.14552 0.12609,-0.26459 0.2802,-0.26459 0.15411,0 0.20662,0.11907 0.11668,0.26459 -0.0899,0.14552 -0.21603,0.26458 -0.2802,0.26458 -0.0642,0 -0.11668,-0.11906 -0.11668,-0.26458 z m -2.91041,-0.38126 c 0,-0.0642 -0.11906,-0.19026 -0.26459,-0.2802 -0.14552,-0.0899 -0.26458,-0.0374 -0.26458,0.11667 0,0.15411 0.11906,0.2802 0.26458,0.2802 0.14553,0 0.26459,-0.0525 0.26459,-0.11667 z m 1.2825,-1.41572 c 0.39011,0.30489 0.39837,0.29212 0.0766,-0.11834 -0.37694,-0.48082 -0.84495,-0.39694 -0.80903,0.14499 0.0143,0.21629 0.0639,0.20793 0.15802,-0.0267 0.11207,-0.27931 0.21706,-0.27931 0.57443,0 z m 2.75758,-0.25085 c -0.10143,-0.26433 -0.22026,-0.27462 -0.49911,-0.0432 -0.46491,0.38585 -0.46345,0.39013 0.13314,0.39013 0.30301,0 0.44679,-0.1363 0.36597,-0.34693 z m -70.143148,17.94925 c -0.48729,-0.30116 2.54947,-3.03319 4.42245,-3.97866 2.47943,-1.25162 7.44104,-2.4841 7.44104,-1.84838 0,0.44672 -3.54081,3.98553 -4.61221,4.60961 -0.59198,0.34482 -1.61212,0.74684 -2.26696,0.89336 -1.70047,0.38048 -4.58916,0.5683 -4.98432,0.32407 z m 99.837438,-0.69108 c -1.78578,-0.73354 -3.6001,-1.92521 -3.78547,-2.48634 -0.10294,-0.3116 0.30663,-0.34421 2.49261,-0.19851 3.30918,0.22057 4.17403,0.46814 5.92402,1.69579 2.1097,1.48 2.03474,1.6548 -0.7065,1.64743 -1.86835,-0.005 -2.65559,-0.13708 -3.92466,-0.65837 z m -75.778108,-1.10363 c -1.52212,-1.70778 -3.21179,-4.95358 -3.90018,-7.49213 -0.33711,-1.24314 -0.46342,-2.6731 -0.45575,-5.15938 0.009,-2.98589 0.10256,-3.71877 0.70761,-5.55625 0.38334,-1.16416 1.26612,-3.09923 1.96171,-4.30016 3.7294,-6.43865 9.14672,-10.53931 18.198058,-13.77506 5.08733,-1.81867 6.21358,-2.27776 8.93398,-3.64174 9.04653,-4.53583 14.08416,-11.370007 14.66047,-19.888757 0.0911,-1.34607 0.21925,-2.4474 0.28487,-2.4474 0.0656,0 1.20852,1.10195 2.53979,2.44877 1.59087,1.60947 3.94572,3.53091 6.87059,5.60606 7.02303,4.98273 9.90043,8.48015 10.89626,13.244127 0.49071,2.34754 0.48837,3.54511 -0.0111,5.66392 -0.65267,2.76885 -1.9092,4.8043 -4.34354,7.03608 l -0.86579,0.79375 0.70901,-1.41443 c 1.60909,-3.21004 2.11348,-7.25567 1.32283,-10.61012 -0.68562,-2.90889 -1.86492,-4.94434 -4.26202,-7.356177 -1.1932,-1.20055 -2.30034,-2.18281 -2.4603,-2.18281 -0.15996,0 0.27875,0.74414 0.97491,1.65364 3.331,4.351817 4.29883,9.878487 2.72211,15.544267 -0.69717,2.50525 -2.97533,7.15666 -4.06741,8.30463 -0.78782,0.82813 -0.95764,0.88318 -3.21303,1.04133 -1.30969,0.0918 -3.06869,0.30577 -3.90891,0.47539 -0.84021,0.16962 -1.58261,0.25346 -1.64977,0.1863 -0.0671,-0.0672 -0.37879,-1.30456 -0.69251,-2.74977 -0.40496,-1.86548 -0.57498,-3.58699 -0.58616,-5.93496 -0.0168,-3.51671 0.32055,-5.2913 1.56991,-8.25963 0.35047,-0.8327 0.63722,-1.60345 0.63722,-1.71277 0,-0.10932 -0.79056,0.5717 -1.75681,1.51338 -0.96625,0.94168 -1.66631,1.47402 -1.5557,1.18298 0.47714,-1.25538 0.93126,-2.90077 0.93126,-3.37412 0,-0.39155 -0.43559,-0.10859 -1.85291,1.20363 -3.07274,2.84488 -6.76332,4.48293 -13.5581,6.01772 -4.78013,1.07972 -7.246,1.92179 -10.518148,3.59184 -3.50055,1.78662 -5.68837,3.43502 -8.49795,6.40271 -2.59349,2.73946 -4.47964,5.74667 -5.53685,8.82779 -1.81201,5.28091 -1.69153,9.69783 0.39743,14.57053 0.4835,1.12779 0.84219,2.05052 0.7971,2.05052 -0.0451,0 -0.68509,-0.67666 -1.42222,-1.5037 z m -23.78336,-4.02545 c 0.31801,-0.52423 0.90749,-1.48892 1.30995,-2.14376 0.40247,-0.65485 1.06386,-2.2296 1.46977,-3.49945 0.4059,-1.26985 0.80434,-2.31165 0.88541,-2.3151 0.0811,-0.003 0.69625,0.73785 1.36705,1.64736 0.67081,0.9095 1.64627,2.06395 2.1677,2.56544 0.52143,0.50149 0.94805,0.99468 0.94805,1.09598 0,0.1013 -0.84041,0.39014 -1.86757,0.64185 -1.02717,0.25172 -2.99055,1.02088 -4.36307,1.70924 l -2.49549,1.25157 z m 102.959858,-0.53209 c -2.8575,-1.43297 -3.22817,-1.72172 -3.7197,-2.89764 -0.34756,-0.83147 -0.32835,-0.9515 0.29641,-1.85208 1.3429,-1.93576 2.2225,-2.83937 2.35396,-2.4182 0.0681,0.21828 0.33772,1.15011 0.59907,2.07073 0.42305,1.49022 1.44377,3.50587 2.87042,5.66833 0.60466,0.91653 0.53191,0.89921 -2.40016,-0.57114 z m -89.232658,-4.25526 c -1.46203,-2.08426 -3.07448,-5.5545 -3.64097,-7.83592 -0.61668,-2.48355 -0.61874,-8.03497 -0.004,-10.5096 1.15759,-4.65908 3.79719,-9.10197 7.47719,-12.58541 4.50879,-4.26794 7.45159,-5.787897 19.29352,-9.965107 2.327138,-0.82089 4.648848,-1.72193 5.159378,-2.0023 l 0.92822,-0.50977 -1.19062,0.16246 c -5.771238,0.78747 -13.038028,2.66517 -17.032718,4.40115 -6.28805,2.732617 -11.58514,7.565107 -14.44459,13.177667 -1.9918,3.90952 -3.39332,9.88389 -3.09606,13.19777 0.19818,2.20927 -0.15092,1.68431 -0.88388,-1.32916 -3.11338,-12.80007 4.01491,-24.704057 17.46557,-29.166897 1.52797,-0.50697 5.27844,-1.47168 8.33438,-2.14381 9.446398,-2.07766 13.557308,-3.48984 17.780218,-6.10789 2.63255,-1.63209 7.15509,-6.12447 9.15705,-9.09599 l 1.50543,-2.23452 v 2.28337 c 0,7.39233 -3.80691,14.51992 -10.22574,19.14545 -2.46008,1.77279 -6.05625,3.34503 -11.4031,4.985437 -2.655288,0.81465 -5.688298,1.79158 -6.740028,2.17095 -8.61963,3.10928 -14.22118,7.85509 -17.40505,14.74614 -1.60262,3.46864 -1.98414,5.46466 -1.97834,10.35019 0.005,4.57086 0.33754,6.41817 1.61199,8.96631 0.35579,0.71137 0.60231,1.33797 0.54783,1.39245 -0.0545,0.0545 -0.60158,-0.61735 -1.21579,-1.49297 z m -6.05795,-1.9625 c -6.79677,-7.37362 -11.44955,-18.83765 -12.46551,-30.7139 -0.22738,-2.658 -0.30862,-2.95996 -0.94311,-3.50572 -0.90471,-0.778197 -1.93357,-0.756497 -3.04603,0.0643 -2.36619,1.74572 -5.16605,-0.390897 -3.42038,-2.610147 0.7652,-0.9728 2.52278,-0.99113 3.42038,-0.0357 0.74758,0.79576 1.6815,0.84415 2.82579,0.14643 0.68677,-0.41876 0.86469,-0.7225 0.96805,-1.65266 0.82428,-7.41812 1.8123,-11.84536 3.74868,-16.79766 2.75008,-7.03333 6.62563,-13.21436 11.2925,-18.010174 0.88505,-0.909505 1.70802,-1.653645 1.82881,-1.653645 0.27555,0 0.76742,0.898231 0.76742,1.401431 0,0.207838 -0.89906,1.495589 -1.99791,2.861667 -10.04325,12.485661 -14.38913,26.513731 -12.69655,40.983188 0.71079,6.07636 1.69055,9.85587 4.5434,17.52667 2.07613,5.58233 3.43803,8.5144 5.28422,11.37652 0.6336,0.98226 1.11003,1.78593 1.05874,1.78593 -0.0513,0 -0.57711,-0.52492 -1.1685,-1.1665 z m 88.872318,-0.58439 c -0.61423,-0.78087 -0.64863,-0.68177 1.04548,-3.01161 8.76168,-12.04956 12.001,-27.40327 8.95707,-42.454627 -1.8197,-8.99793 -5.98982,-17.29457 -12.77226,-25.410988 -1.8106,-2.166715 -2.04306,-2.861654 -1.14152,-3.412561 0.40953,-0.250251 0.80395,0.04609 2.78118,2.089644 8.03319,8.302605 13.25752,19.798195 14.60195,32.130035 0.16557,1.51871 0.46681,3.08186 0.66942,3.47367 0.64347,1.24432 1.87726,1.38392 3.35521,0.37963 1.93236,-1.31307 3.91192,-0.67198 3.91192,1.26689 0,1.07539 -0.39943,1.678817 -1.32479,2.001397 -0.93779,0.32692 -1.42356,0.19177 -2.49875,-0.69519 -0.6308,-0.520367 -0.98139,-0.617217 -1.82476,-0.504097 -1.70489,0.22867 -1.93602,0.674847 -2.28614,4.413287 -1.0052,10.73331 -4.07024,19.28823 -9.61674,26.84162 -1.69081,2.3026 -2.80593,3.58546 -3.11662,3.58546 -0.10774,0 -0.44103,-0.31165 -0.74065,-0.69256 z m -28.86239,-5.39286 c -0.30816,-0.19915 -0.23074,-0.25738 0.34635,-0.26053 0.42891,-0.002 0.67406,0.10784 0.57969,0.26053 -0.20303,0.32852 -0.4177,0.32852 -0.92604,0 z m 26.07284,-6.87916 c -0.29459,-0.94471 -0.93228,-1.60242 -1.98544,-2.04777 l -0.91573,-0.38724 0.79655,-0.33493 c 0.91866,-0.38626 2.22007,-1.82651 2.23723,-2.47589 0.006,-0.24585 0.23916,-0.0121 0.52324,0.52561 0.5668,1.0729 1.68674,2.06866 2.34501,2.08498 0.24985,0.006 0.0977,0.18478 -0.36641,0.42999 -1.15996,0.61289 -1.7288,1.17399 -2.09931,2.07074 l -0.32888,0.79597 z m -6.56752,-16.98623 c -0.40176,-6.453847 -3.2685,-10.553527 -11.84746,-16.942827 -8.42262,-6.27286 -11.12648,-10.47104 -10.75932,-16.70557 0.13373,-2.27063 1.11456,-5.957221 1.75547,-6.598126 0.13658,-0.136586 0.411,0.371612 0.6563,1.215436 0.23187,0.7976 0.64196,1.72233 0.91131,2.05497 0.48423,0.59799 0.48834,0.58075 0.36596,-1.53327 -0.21863,-3.776775 0.96678,-6.518143 5.05065,-11.680063 1.1365,-1.436503 2.34077,-2.869626 2.67617,-3.184716 l 0.60981,-0.572889 0.16288,1.018588 c 0.0896,0.560221 0.24319,3.061533 0.34136,5.558472 l 0.17847,4.539885 1.3653,0.283434 c 4.32095,0.897025 6.59248,3.118319 8.46153,8.274389 0.59815,1.6501 2.53573,3.73861 5.45897,5.8842 1.29765,0.95245 2.35937,1.80437 2.35937,1.89315 0,0.0888 -0.53579,0.088 -1.19063,-0.002 -1.00008,-0.13707 -1.19062,-0.0926 -1.19062,0.27772 0,0.2425 0.2556,0.71298 0.56799,1.04551 0.69438,0.73913 0.45126,1.12942 -1.20211,1.9298 -1.77474,0.85914 -4.10726,0.70796 -12.45073,-0.80696 -2.44016,-0.44306 -4.29116,-1.24279 -5.88929,-2.54448 -1.43535,-1.16911 -1.45389,-1.17564 -0.96806,-0.34089 1.44873,2.48919 5.41532,4.9169 9.48766,5.80682 1.26407,0.27623 2.32455,0.54154 2.35663,0.58956 0.0321,0.048 0.42257,0.56357 0.86775,1.14565 3.13725,4.10203 4.73507,10.0715 4.06,15.168217 -0.28563,2.15651 -1.37673,6.00629 -1.83506,6.47472 -0.11392,0.11643 -0.27605,-0.8956 -0.3603,-2.24896 z m -2.10807,-30.959847 c -3.04263,-4.17789 -4.28456,-4.81624 -7.953,-4.08788 -2.23015,0.4428 -6.97759,1.97706 -6.26925,2.02608 0.21828,0.0151 1.83603,0.0514 3.595,0.0807 l 3.19812,0.0532 1.48455,0.98581 c 0.99153,0.65841 2.09554,1.1132 3.32433,1.36941 1.01188,0.21098 2.29796,0.62531 2.85795,0.92073 0.56,0.29542 1.04834,0.54239 1.08522,0.54882 0.0369,0.006 -0.55844,-0.84717 -1.32292,-1.89689 z M 135.89775,61.434484 c 0.29491,-0.887916 0.40158,-1.998814 0.34823,-3.62671 l -0.0769,-2.346722 -1.13887,1.660321 c -2.17316,3.168184 -3.51274,6.842699 -3.09204,8.48163 0.17916,0.69797 0.20019,0.68562 1.85783,-1.091283 1.12719,-1.208294 1.81593,-2.216695 2.10176,-3.077236 z m 23.15778,43.212606 c 0,-0.23284 -0.40481,-0.82815 -0.89958,-1.32292 -0.49477,-0.49477 -1.09008,-0.89958 -1.32292,-0.89958 -0.23283,0 -0.42333,-0.11906 -0.42333,-0.26459 0,-0.14552 0.16253,-0.26458 0.36119,-0.26458 0.58287,0 1.79107,-1.08223 2.14322,-1.919757 l 0.32545,-0.77401 0.56693,0.960867 c 0.31181,0.52848 0.9245,1.16435 1.36152,1.41304 0.43703,0.24868 0.79535,0.51438 0.79627,0.59042 7.9e-4,0.0761 -0.40878,0.35931 -0.91043,0.62947 -0.50166,0.27016 -1.10256,0.89255 -1.33534,1.38309 -0.46401,0.97784 -0.66298,1.11846 -0.66298,0.46855 z m 0.29349,-11.942297 c -0.4216,-1.01784 -1.07461,-1.62891 -2.00723,-1.87833 l -0.71228,-0.19049 1.00746,-0.65413 c 0.55411,-0.35977 1.27659,-1.13038 1.60554,-1.71246 0.33614,-0.59483 0.59997,-0.85958 0.60242,-0.60452 0.006,0.57357 1.45752,2.24602 2.13731,2.46178 0.58584,0.18593 0.69455,0.65628 0.15168,0.65628 -0.59694,0 -1.75409,1.05867 -2.10969,1.93014 l -0.33337,0.817 z m -87.209108,-4.79616 c -0.58208,-0.26479 -1.2236,-0.68113 -1.42558,-0.9252 -0.31569,-0.38148 -0.30641,-0.51099 0.0662,-0.92266 0.23836,-0.26339 0.43339,-0.73513 0.43339,-1.04831 0,-0.52548 -0.0951,-0.55639 -1.23197,-0.40055 -0.85973,0.11784 -1.17803,0.0816 -1.05345,-0.11999 0.0982,-0.15887 1.53427,-1.30715 3.19129,-2.55173 3.42501,-2.57252 4.64132,-4.03879 5.69645,-6.86709 0.39564,-1.06053 1.09348,-2.47202 1.55075,-3.13664 2.14621,-3.11942 6.36167,-4.94094 10.63235,-4.59428 3.31608,0.26916 3.70659,0.46155 4.7578,2.34399 1.21593,2.17739 5.17409,6.14873 7.508618,7.53363 1.81229,1.07509 1.81432,1.07761 1.19063,1.48113 -0.95687,0.61909 -3.10142,1.40112 -4.812928,1.75508 -0.84829,0.17543 -1.47663,0.38468 -1.39632,0.46499 0.0803,0.0803 1.25061,0.28569 2.60067,0.4564 l 2.454648,0.31038 -0.79375,0.41909 c -1.025,0.54118 -4.867378,1.79689 -5.498368,1.79689 -0.26729,0 -0.42025,0.10635 -0.33991,0.23635 0.0803,0.12999 1.24301,0.32317 2.58372,0.42928 l 2.437648,0.19293 -0.998108,0.51206 c -2.38932,1.22579 -4.7248,1.57885 -11.94331,1.80547 -5.78874,0.18173 -7.17184,0.30361 -8.72553,0.76889 -2.36926,0.70953 -5.39883,0.73588 -6.88489,0.0599 z m 9.83108,-7.99767 c 1.14134,-0.31082 2.75522,-0.98245 3.5864,-1.49252 1.92263,-1.17986 3.17487,-1.31817 6.76167,-0.7468 1.56178,0.24879 3.46168,0.41334 4.222,0.36567 1.36685,-0.0857 1.33247,-0.1025 -3.05517,-1.49233 -8.77497,-2.77957 -10.40143,-2.51563 -13.52034,2.19408 -1.82709,2.75901 -1.76931,2.6159 -0.86795,2.1498 0.43902,-0.22703 1.73204,-0.66709 2.87339,-0.9779 z m 28.798078,-4.07166 c -3.76047,-0.82784 -6.79224,-2.53265 -9.67801,-5.44209 -1.596648,-1.60975 -2.252128,-2.52847 -3.217818,-4.5101 -1.60273,-3.28886 -1.9251,-4.743491 -1.90015,-8.573978 0.0178,-2.73482 0.12111,-3.468454 0.74505,-5.291666 2.38732,-6.975951 8.766258,-12.0992 16.647728,-13.370617 2.67196,-0.431034 7.06454,-0.190404 9.83862,0.538969 2.11687,0.556576 6.32837,2.457762 7.50183,3.386531 0.56373,0.446177 0.38842,0.432507 -1.85208,-0.14442 -2.1716,-0.559186 -2.87988,-0.621132 -5.78204,-0.505697 -4.12702,0.164155 -5.6893,0.625015 -8.92797,2.633667 -3.23372,2.005586 -5.64848,5.407382 -6.59872,9.295989 -0.24655,1.008936 -0.50017,1.66378 -0.56359,1.455208 -0.18153,-0.596921 -1.42732,-1.841391 -2.29826,-2.295805 -0.73355,-0.38273 -0.76642,-0.381193 -0.43342,0.02024 0.19818,0.238913 0.28107,0.640929 0.1842,0.893365 -0.26802,0.698447 -0.66774,-0.08115 -0.67277,-1.312132 -0.004,-1.085159 -0.16968,-1.190656 -0.94567,-0.603726 -0.66159,0.500404 -1.46884,0.506823 -2.11667,0.01683 -0.727238,-0.550047 -0.910458,-0.498496 -0.910458,0.256183 0,0.363802 -0.0893,0.647359 -0.19844,0.630127 -0.53938,-0.08516 -0.92123,0.101351 -1.81614,0.887095 -1.76241,1.547415 -2.15393,3.53201 -1.05496,5.347599 0.34756,0.574191 0.57698,1.18718 0.50982,1.362194 -0.0771,0.200901 0.12134,0.303726 0.53828,0.278929 0.61162,-0.03638 0.62946,-0.07348 0.24158,-0.502298 -0.33194,-0.366964 -0.34321,-0.463021 -0.0544,-0.463021 0.21381,0 0.1214,-0.170249 -0.22358,-0.411877 -0.32342,-0.226534 -0.58804,-0.573799 -0.58804,-0.771702 0,-0.197903 -0.12171,-0.400394 -0.27046,-0.44998 -0.14876,-0.04959 -0.33236,-0.431495 -0.40802,-0.84869 l -0.13754,-0.758537 0.87103,0.733869 c 0.47907,0.403628 0.87418,0.864913 0.87803,1.025081 0.004,0.160165 0.0777,0.410273 0.16417,0.555794 0.0865,0.145521 0.12481,0.464712 0.0853,0.709311 -0.0396,0.244599 0.0857,0.505209 0.27831,0.579128 0.2053,0.07878 0.29157,0.358748 0.20847,0.676537 -0.093,0.355531 0.005,0.588777 0.28512,0.677643 0.23479,0.07453 0.63525,0.214521 0.88992,0.311091 0.649228,0.246206 3.028498,0.282512 3.505718,0.0535 0.21829,-0.104749 0.61875,-0.260123 0.88992,-0.345274 0.33822,-0.106209 0.44942,-0.321632 0.35411,-0.686072 -0.10472,-0.400473 0.067,-0.635926 0.69759,-0.95649 l 0.83651,-0.425238 -0.66146,0.73103 c -0.60885,0.672894 -0.61581,0.7073 -0.0875,0.432652 0.31568,-0.164108 0.62359,-0.210034 0.68424,-0.102055 0.0607,0.107979 0.0805,0.06452 0.0442,-0.09658 -0.0364,-0.161099 0.15418,-0.628713 0.42342,-1.039143 l 0.48952,-0.746236 0.16699,0.77456 c 0.31737,1.472004 1.26829,3.952557 1.91963,5.007496 1.55256,2.514586 4.44222,4.820446 7.45093,5.945636 0.88473,0.33086 1.6086,0.69543 1.6086,0.81014 0,0.27626 -1.94639,2.77747 -3.13326,4.02639 -1.06658,1.12236 -1.66625,1.20408 -4.40737,0.60065 z m -12.832288,-23.0397 c 0,-0.226869 -0.121,-0.337703 -0.26889,-0.2463 -0.1479,0.0914 -0.20041,0.277024 -0.11668,0.41249 0.22681,0.366988 0.38557,0.298559 0.38557,-0.16619 z m 8.058498,0.16619 c 0.0837,-0.135466 0.0312,-0.321087 -0.11668,-0.41249 -0.14789,-0.0914 -0.2689,0.01942 -0.2689,0.2463 0,0.464749 0.15877,0.533178 0.38558,0.16619 z M 80.239172,65.176104 c -0.81463,-1.596805 -2.445,-6.700694 -2.35792,-7.381501 0.0777,-0.6072 0.13593,-0.589471 2.53527,0.771443 2.68333,1.521997 7.24464,4.697311 7.39482,5.147836 0.0525,0.157393 -0.44034,0.362768 -1.11226,0.463526 -1.19119,0.178631 -1.23647,0.157253 -3.57576,-1.688031 -1.30311,-1.027922 -2.44026,-1.86895 -2.52699,-1.86895 -0.23436,0 0.0936,0.972148 1.01459,3.007267 0.79621,1.759439 0.80632,1.828169 0.32132,2.182809 -0.78678,0.57531 -1.14426,0.44136 -1.69307,-0.634399 z m 38.055738,-0.902311 c -0.22642,-0.461306 -0.8593,-1.071012 -1.40646,-1.354963 l -0.9948,-0.516255 1.06081,-0.632589 c 0.69709,-0.415692 1.17566,-0.950182 1.39576,-1.558856 l 0.33494,-0.926267 0.37455,0.733928 c 0.53122,1.040926 1.13855,1.684059 1.8456,1.954421 0.62383,0.238541 0.57282,0.763881 -0.0742,0.763881 -0.33403,0 -1.25399,0.962509 -1.85999,1.946011 -0.2257,0.366297 -0.32508,0.306146 -0.67625,-0.409311 z m 43.40973,-0.637079 c -0.62659,-0.829911 -1.7317,-2.163125 -2.4558,-2.962699 l -1.31654,-1.453771 1.95068,-0.486077 c 1.07287,-0.26734 3.11154,-1.059103 4.53036,-1.759473 1.41883,-0.700368 2.57969,-1.246143 2.57969,-1.212832 0,0.03331 -0.59793,1.045025 -1.32874,2.248249 -1.21087,1.993636 -2.36932,4.920372 -2.37948,6.011624 -0.0112,1.20454 -0.46319,1.094412 -1.58017,-0.385021 z m -97.244278,0.09257 c -0.32642,-1.979377 -1.45436,-4.412546 -3.48227,-7.511835 -0.29856,-0.45629 0.13351,-0.31382 2.22056,0.732192 1.42519,0.714292 3.4247,1.501814 4.44334,1.750051 1.01865,0.248238 1.89986,0.482463 1.95825,0.520502 0.0584,0.03804 -0.42278,0.636545 -1.06927,1.330013 -0.64648,0.693467 -1.69083,1.945457 -2.32076,2.782202 -0.62994,0.836745 -1.23963,1.521354 -1.35488,1.521354 -0.11524,0 -0.29298,-0.506016 -0.39497,-1.124479 z M 145.35607,61.53147 c -0.74842,-0.524217 -0.73847,-0.783098 0.10057,-2.615803 0.37874,-0.827268 0.62355,-1.569186 0.54403,-1.648706 -0.0795,-0.07952 -0.84329,0.404354 -1.69726,1.075277 -1.62908,1.279879 -2.65007,1.533252 -3.25266,0.807188 -0.29359,-0.353764 -0.10313,-0.640424 1.33424,-2.008182 1.90389,-1.811684 5.18099,-4.19373 5.76952,-4.19373 0.32303,0 0.36312,0.286557 0.22499,1.608113 -0.28167,2.694898 -1.71871,7.387719 -2.26226,7.387719 -0.0952,0 -0.43775,-0.185346 -0.76117,-0.411876 z m -44.84841,-0.388391 c 0.0771,-0.294624 -0.01,-1.071943 -0.19357,-1.727377 -0.354788,-1.267163 -0.30898,-1.533445 0.20873,-1.213479 0.17697,0.10937 0.39884,0.936336 0.49306,1.837697 0.14393,1.377053 0.10583,1.63884 -0.23851,1.63884 -0.28119,0 -0.36583,-0.168106 -0.26971,-0.535681 z m 1.08368,0.354942 c 0.191,-0.07643 0.4192,-0.06703 0.50712,0.02088 0.0879,0.08792 -0.0683,0.150453 -0.34727,0.138965 -0.30822,-0.0127 -0.37091,-0.07539 -0.15985,-0.159851 z m 0.93927,-1.458101 c 0.0942,-0.901361 0.31608,-1.728327 0.49305,-1.837697 0.48583,-0.300263 0.50566,-0.158306 0.18607,1.331931 -0.16186,0.754708 -0.2276,1.545989 -0.14609,1.758402 0.0921,0.240064 -0.0131,0.386204 -0.27806,0.386204 -0.36452,0 -0.40145,-0.237384 -0.25497,-1.63884 z m -12.002158,0.975233 c -1.47003,-1.806342 -6.88499,-4.963974 -12.7,-7.405758 l -2.24896,-0.944362 1.71979,0.157295 c 3.62788,0.331814 8.78361,2.068928 11.7971,3.974785 1.12015,0.708425 1.40135,1.048798 1.67553,2.028068 0.18121,0.647224 0.28986,1.514467 0.24145,1.927209 -0.0833,0.71015 -0.10934,0.724258 -0.48491,0.262763 z m 8.59896,-0.130143 c 0.0899,-0.145521 0.33509,-0.264583 0.54478,-0.264583 0.20969,0 0.381258,0.119062 0.381258,0.264583 0,0.145521 -0.245148,0.264583 -0.544778,0.264583 -0.29963,0 -0.4712,-0.119062 -0.38126,-0.264583 z m 4.365618,0 c 0,-0.145521 0.17157,-0.264583 0.38126,-0.264583 0.2097,0 0.45485,0.119062 0.54479,0.264583 0.0899,0.145521 -0.0816,0.264583 -0.38126,0.264583 -0.29963,0 -0.54479,-0.119062 -0.54479,-0.264583 z m -4.354698,-1.575435 c -0.46589,-0.514794 -0.47164,-0.590783 -0.0748,-0.987634 0.39685,-0.396854 0.44328,-0.376735 0.60346,0.261464 0.26417,1.052555 0.0424,1.357191 -0.52868,0.72617 z m 4.623338,-0.01942 c 0.006,-1.019257 0.36313,-1.432674 0.79128,-0.916789 0.29894,0.360203 0.26564,0.50992 -0.2218,0.997362 l -0.57353,0.573535 0.004,-0.654108 z m 1.47224,0.04147 c -0.0891,-0.144174 -0.0462,-0.333705 0.0953,-0.421182 0.14154,-0.08747 0.20211,-0.304062 0.13459,-0.481303 -0.0675,-0.17724 0.29868,-0.657784 0.81375,-1.067875 l 0.9365,-0.745619 -0.13485,0.743659 c -0.0742,0.409011 -0.25731,0.784476 -0.40697,0.834363 -0.14966,0.04989 -0.21315,0.186108 -0.14108,0.30271 0.0721,0.116605 -0.0691,0.374325 -0.31373,0.572714 -0.38191,0.309743 -0.41611,0.304631 -0.24205,-0.03616 0.11149,-0.218282 0.0267,-0.181391 -0.18839,0.08198 -0.22659,0.277429 -0.45924,0.368591 -0.5531,0.21672 z m -4.50851,-1.448942 c -0.26814,-0.196067 -0.37426,-0.426493 -0.23582,-0.512051 0.13844,-0.08556 0.39561,0.07486 0.57149,0.356486 0.37833,0.605803 0.31818,0.633677 -0.33567,0.155565 z m 1.63384,-0.177269 c 0.14664,-0.560744 0.47495,-0.683863 0.72871,-0.273266 0.0854,0.138218 -0.0745,0.374276 -0.35529,0.524576 -0.43655,0.233637 -0.49071,0.197194 -0.37342,-0.25131 z m -4.797628,-0.608279 c -0.55516,-0.40594 -0.47911,-1.636083 0.10115,-1.636083 0.24219,0 0.39096,-0.267814 0.39687,-0.714433 0.014,-1.061381 0.54396,-1.458772 0.6197,-0.464717 0.0854,1.120735 -0.39669,1.972855 -0.88626,1.566542 -0.28849,-0.239424 -0.27821,-0.12143 0.0461,0.528577 0.48221,0.966613 0.3893,1.207704 -0.27751,0.720119 z m 7.920328,-0.127431 c 0.0943,-0.334405 0.0376,-0.769351 -0.12608,-0.966545 -0.44862,-0.540551 -0.81755,-1.997315 -0.50583,-1.997315 0.14396,0 0.17771,-0.148828 0.075,-0.330729 -0.14539,-0.25753 -0.10688,-0.256559 0.17398,0.0044 0.19839,0.184311 0.36468,0.660561 0.36955,1.058333 0.006,0.462542 0.15189,0.72322 0.40572,0.72322 0.25656,0 0.39687,0.257233 0.39687,0.727604 0,0.400182 -0.10575,0.717436 -0.235,0.705006 -0.12925,-0.01244 -0.34541,0.136398 -0.48035,0.330729 -0.16663,0.239959 -0.19033,0.15824 -0.0739,-0.254682 z m 0.65693,-1.111777 c 0,-0.145521 -0.0525,-0.264583 -0.11668,-0.264583 -0.0642,0 -0.19026,0.119062 -0.2802,0.264583 -0.0899,0.145521 -0.0374,0.264583 0.11668,0.264583 0.15411,0 0.2802,-0.119062 0.2802,-0.264583 z m -6.08137,1.140095 c -0.002,-0.173313 0.14138,-0.404998 0.31913,-0.514853 0.48861,-0.301977 2.58886,-0.280614 2.84587,0.02895 0.15032,0.181054 -0.27494,0.264041 -1.27324,0.248457 -0.82441,-0.01286 -1.58641,0.106195 -1.69332,0.264583 -0.13527,0.200409 -0.19562,0.192156 -0.19844,-0.02713 z M 69.626372,56.490757 c -2.96972,-0.797276 -5.55802,-2.282396 -7.61823,-4.371196 -1.07163,-1.086504 -1.10525,-1.165392 -0.59389,-1.393569 0.6965,-0.310787 4.64016,0.444717 6.23531,1.194525 1.11288,0.523118 4.88722,4.177546 4.88722,4.731956 0,0.366758 -1.18777,0.30076 -2.91041,-0.161716 z m 29.13054,-0.169809 c 0.0145,-0.327422 0.11117,-0.892969 0.21482,-1.256771 l 0.18844,-0.661458 0.18846,0.733033 c 0.10389,0.404104 0.0627,0.968047 -0.0918,1.256771 -0.36728,0.686276 -0.53242,0.66263 -0.49989,-0.07157 z m 5.518828,-0.0072 c -0.2542,-0.541367 -0.26719,-0.81261 -0.0493,-1.030457 0.21784,-0.217847 0.34115,-0.114477 0.46844,0.392697 0.26464,1.054402 -0.02,1.487625 -0.41911,0.63776 z m 50.81104,0.305829 c 0,-0.163161 0.92274,-1.216612 2.05052,-2.341007 1.61594,-1.611074 2.38698,-2.169985 3.63802,-2.63712 1.81166,-0.676466 5.24813,-1.044604 5.52775,-0.592172 0.46263,0.748551 -2.166,3.014326 -4.97434,4.287689 -2.80468,1.271704 -6.24195,1.978001 -6.24195,1.28261 z m -54.10729,-1.026233 c -0.26339,-0.291042 -0.63903,-0.529167 -0.83476,-0.529167 -0.195718,0 -0.355858,-0.119062 -0.355858,-0.264583 0,-0.350959 0.432628,-0.334547 1.141868,0.04332 0.52242,0.278334 0.54305,0.265631 0.21479,-0.132291 -0.19972,-0.242107 -0.52714,-0.440193 -0.7276,-0.440193 -0.501888,0 -0.459098,-0.436242 0.0624,-0.636365 0.2884,-0.11067 0.37851,-0.355902 0.27774,-0.755912 -0.12742,-0.505844 -0.10288,-0.530913 0.16843,-0.172088 0.44066,0.582811 1.27055,0.522825 1.84522,-0.133379 l 0.48274,-0.551214 -0.34373,0.611426 c -0.30076,0.534984 -0.27758,0.662828 0.18543,1.022551 0.31118,0.241763 0.40838,0.457041 0.23596,0.522594 -0.16127,0.06131 -0.51846,0.292338 -0.79375,0.5134 -0.47646,0.382588 -0.47274,0.388496 0.0774,0.122751 0.72607,-0.350753 1.14187,-0.356068 1.14187,-0.0146 0,0.145521 -0.14116,0.264583 -0.31368,0.264583 -0.17252,0 -0.60844,0.267891 -0.9687,0.595313 -0.36027,0.327421 -0.56928,0.446484 -0.46446,0.264583 0.11918,-0.206835 0.0302,-0.330729 -0.23754,-0.330729 -0.23545,0 -0.35452,0.119062 -0.26458,0.264583 0.27428,0.443799 -0.0223,0.295516 -0.52917,-0.264583 z m 1.13365,-1.788451 c -0.45689,-0.550513 -1.06312,0.109228 -0.67356,0.733009 0.28208,0.451686 0.32752,0.454896 0.62773,0.04433 0.22835,-0.312285 0.24184,-0.541158 0.0458,-0.777343 z m 23.87693,0.240638 c -0.008,-0.707461 -1.58679,-2.420937 -2.22996,-2.420937 -0.70374,0 -0.47809,-0.366887 0.56957,-0.926042 0.54531,-0.291041 1.18628,-0.919167 1.42437,-1.395833 l 0.43289,-0.866669 0.55678,0.943676 c 0.30623,0.519023 0.91435,1.147149 1.35138,1.395836 0.43702,0.248687 0.79263,0.511688 0.79025,0.584449 -0.002,0.07276 -0.38326,0.319013 -0.84638,0.547229 -0.5135,0.253037 -1.07604,0.872453 -1.44175,1.5875 -0.47863,0.935837 -0.6012,1.047036 -0.60715,0.550791 z m 27.58117,-2.735471 c 0.10825,-2.291106 0.3183,-3.760433 0.68791,-4.812038 0.56147,-1.597488 2.09999,-3.968616 2.54742,-3.926035 0.45813,0.0436 0.94787,2.758294 0.84555,4.686982 -0.11633,2.192708 -0.73702,3.718896 -2.25342,5.540856 -1.95144,2.344653 -2.00651,2.299751 -1.82746,-1.489765 z m -54.405268,2.568577 c -0.22407,-0.583916 0.0593,-1.07143 0.41559,-0.715097 0.16834,0.168339 0.17176,0.423638 0.01,0.713473 -0.23747,0.424339 -0.2629,0.424437 -0.42515,0.0016 z m -27.48498,-1.81276 c -1.13556,-1.797519 -1.55364,-3.287967 -1.55103,-5.529321 0.002,-2.122342 0.40119,-4.172378 0.81151,-4.172378 0.80494,0 2.9728,4.640259 3.01812,6.46027 0.0312,1.254329 0.002,1.309055 -0.82749,1.528918 -0.92739,0.245923 -0.96605,0.36289 -0.61687,1.86654 0.30161,1.29879 0.0547,1.253213 -0.83424,-0.154029 z m 9.1106,-1.496029 c -0.48033,-0.113757 -0.93192,-0.265424 -1.00353,-0.337039 -0.30344,-0.303437 6.75461,-4.490434 10.59015,-6.282314 2.92923,-1.368477 7.39041,-3.173817 7.84282,-3.173817 0.15828,0 -0.4759,0.836745 -1.40928,1.859433 -1.56258,1.712069 -2.00986,2.013524 -5.64383,3.803774 -2.17072,1.069388 -4.89926,2.493944 -6.06343,3.165682 -2.12033,1.223454 -2.68525,1.349761 -4.3129,0.964281 z m 62.466928,-0.506677 c -1.02576,-0.743053 -1.40091,-1.545854 -1.40091,-2.997874 0,-0.389562 0.11906,-0.479502 0.46303,-0.349782 0.97106,0.366218 4.82864,2.930329 4.82864,3.209573 0,0.287232 -1.66514,0.905756 -2.43839,0.905756 -0.21595,0 -0.86951,-0.345453 -1.45237,-0.767673 z m 6.68581,-0.113276 c -0.72623,-0.531034 -0.4651,-3.539915 0.48829,-5.626245 0.67914,-1.486168 2.10794,-3.282389 2.61098,-3.282389 0.12884,0 0.001,0.386953 -0.28392,0.859896 -0.85662,1.421537 -1.45559,3.640264 -1.61928,5.998151 -0.0851,1.225312 -0.27854,2.268715 -0.42994,2.318671 -0.15141,0.04996 -0.49617,-0.07068 -0.76613,-0.268084 z m -73.033768,-0.24353 c -0.0592,-0.181901 -0.23792,-1.368671 -0.39728,-2.637266 -0.30158,-2.40066 -0.79812,-4.124269 -1.49417,-5.186567 -0.61965,-0.945712 -0.2987,-0.935594 0.68698,0.02166 1.27273,1.236017 2.17447,3.37582 2.32823,5.524818 0.0881,1.231662 0.0235,1.934866 -0.20296,2.207713 -0.40384,0.48659 -0.77608,0.514744 -0.9208,0.06965 z"
       id="path765" /></g></svg>
