<?xml version="1.0" encoding="UTF-8" standalone="no"?>
<!-- Created with Inkscape (http://www.inkscape.org/) -->

<svg
   width="62mm"
   height="42mm"
   viewBox="0 0 200 200"
   version="1.1"
   id="svg484"
   xml:space="preserve"
   inkscape:version="1.2.2 (732a01da63, 2022-12-09)"
   sodipodi:docname="logo-02.2-solid-blck.svg"
   xmlns:inkscape="http://www.inkscape.org/namespaces/inkscape"
   xmlns:sodipodi="http://sodipodi.sourceforge.net/DTD/sodipodi-0.dtd"
   xmlns="http://www.w3.org/2000/svg"
   xmlns:svg="http://www.w3.org/2000/svg"><sodipodi:namedview
     id="namedview486"
     pagecolor="#ffffff"
     bordercolor="#999999"
     borderopacity="1"
     inkscape:showpageshadow="0"
     inkscape:pageopacity="0"
     inkscape:pagecheckerboard="0"
     inkscape:deskcolor="#d1d1d1"
     inkscape:document-units="mm"
     showgrid="false"
     inkscape:zoom="0.73851712"
     inkscape:cx="515.22164"
     inkscape:cy="542.97997"
     inkscape:window-width="1920"
     inkscape:window-height="1009"
     inkscape:window-x="-8"
     inkscape:window-y="-8"
     inkscape:window-maximized="1"
     inkscape:current-layer="g619" /><defs
     id="defs481" /><g
     inkscape:label="Layer 1"
     inkscape:groupmode="layer"
     id="layer1"><g
       id="g619"
       transform="translate(7.1652632,-30.810619)"><path
         style="fill:#ffffff ;stroke-width:0.408945"
         d="m 84.445685,98.222548 c -0.376247,-0.233338 -0.427736,-0.390789 -0.129002,-0.394475 0.27345,-0.0032 0.613283,0.174141 0.755184,0.394475 0.320313,0.497368 0.175799,0.497368 -0.626182,0 z m 1.905385,-2.52108 c 0.156766,-0.395088 0.39019,-0.617425 0.518721,-0.494082 0.12853,0.123343 2.67e-4,0.446594 -0.28503,0.718343 -0.412287,0.3927 -0.460236,0.346686 -0.233691,-0.224261 z m -9.941388,-3.352751 c 0.287,-0.111133 0.756637,-0.111133 1.043637,0 0.287,0.111133 0.05218,0.202063 -0.521818,0.202063 -0.574001,0 -0.808819,-0.09093 -0.521819,-0.202063 z m -9.497095,-1.537422 c 0.778879,-0.771171 1.510072,-1.40213 1.624872,-1.40213 0.1148,0 -0.428538,0.630959 -1.207417,1.40213 -0.778878,0.771171 -1.510071,1.402129 -1.624871,1.402129 -0.1148,0 0.428538,-0.630958 1.207416,-1.402129 z m 5.042415,-16.458324 c 0.02004,-0.466689 0.11895,-0.561613 0.252209,-0.242036 0.120591,0.289188 0.105763,0.634712 -0.03294,0.767834 -0.13872,0.133119 -0.237381,-0.103493 -0.219255,-0.525798 z m -6.679275,-5.207909 c 0.02004,-0.466686 0.118949,-0.561613 0.252209,-0.242035 0.12059,0.289189 0.105762,0.634714 -0.03294,0.767833 -0.13872,0.133119 -0.237382,-0.103491 -0.219256,-0.525798 z m -1.49405,-1.769354 c 0.415572,-0.440669 0.849512,-0.801216 0.964312,-0.801216 0.1148,0 -0.131285,0.360547 -0.546857,0.801216 -0.415572,0.440669 -0.849512,0.801217 -0.964312,0.801217 -0.1148,0 0.131285,-0.360548 0.546857,-0.801217 z M 51.884218,65.622023 c 0,-0.08319 0.328745,-0.398668 0.730546,-0.701064 0.662106,-0.498305 0.676871,-0.484136 0.157612,0.151251 -0.54535,0.667313 -0.888158,0.879527 -0.888158,0.549813 z"
         id="path633" /><path
         style="fill:#000000;stroke-width:0.264583"
         d="m 82.502068,178.21297 c -1.46103,-0.6944 -1.90633,-1.25483 -2.14708,-2.70224 l -0.14986,-0.90093 -1.4548,-0.49748 c -0.89519,-0.30611 -1.81102,-0.44173 -2.38085,-0.35256 -0.50932,0.0797 -1.57932,0.0377 -2.37777,-0.0933 l -1.45174,-0.23826 -0.96642,-1.08901 c -2.66415,-3.00213 -0.51637,-7.34955 4.26677,-8.63655 l 1.19062,-0.32036 -1.19062,-0.55708 c -0.65485,-0.3064 -1.54781,-0.56146 -1.98438,-0.56681 -2.75351,-0.0337 -8.17756,-2.34044 -11.45156,-4.87006 -1.05044,-0.81162 -1.9099,-1.37666 -1.9099,-1.25566 0,0.99535 5.81758,7.68072 8.21544,9.44092 l 1.28731,0.94496 -0.43475,0.91168 c -0.60562,1.27 -2.74179,-0.039 -6.17708,-3.78512 -15.17699,-16.55033 -14.64381,-38.83605 1.31078,-54.78819 3.22891,-3.22842 9.02167,-7.37564 10.99338,-7.87051 l 0.67992,-0.17065 v 0.9649 0.96491 l -1.20553,0.71742 c -7.3426,4.36966 -14.75885,12.23549 -15.83119,16.79086 -0.25802,1.09611 -0.0681,0.92175 1.58514,-1.45521 2.47145,-3.55337 11.78408,-12.44147 12.38246,-11.81798 1.4743,1.53617 0.50128,12.12055 -1.63978,17.83725 l -1.18913,3.175 -0.003,1.98438 c -0.002,1.46255 0.19113,2.57577 0.73463,4.23333 l 0.7374,2.24896 0.29617,-0.50417 c 0.16289,-0.27729 0.98077,-1.33367 1.81751,-2.34751 l 1.52136,-1.84335 v -1.23492 c 0,-1.60995 0.59571,-3.85221 1.70114,-6.40307 1.03386,-2.38571 1.05088,-2.32473 -0.57853,-2.07312 -1.58952,0.24546 -1.59708,0.23455 -0.9308,-1.34249 0.30603,-0.72435 0.52167,-1.317 0.4792,-1.317 -0.0425,0 -0.51146,0.18144 -1.0422,0.4032 l -0.96498,0.40319 0.17036,-0.73392 c 0.0937,-0.40366 0.45386,-1.25493 0.80037,-1.89172 0.78839,-1.44884 0.78564,-1.57669 -0.0305,-1.42067 l -0.66054,0.12627 0.39943,-1.13209 c 0.42644,-1.20867 1.37252,-3.00167 2.71579,-5.14696 l 0.82835,-1.32292 -0.38107,-1.5875 c -0.87207,-3.63309 0.36794,-16.536449 1.58917,-16.536449 0.87835,0 9.40032,8.11303 10.28304,9.789579 l 0.48756,0.92604 h 2.33216 2.33216 l 0.48757,-0.91111 c 0.94547,-1.766799 9.378002,-9.804509 10.286112,-9.804509 1.16113,0 2.42141,12.622489 1.62464,16.271869 l -0.40436,1.85208 0.89664,1.47875 c 2.38382,3.93139 3.18191,6.20252 2.10745,5.99713 -0.74137,-0.14173 -0.85611,0.103 -0.27458,0.58563 0.31618,0.2624 1.4652,2.87307 1.4652,3.32905 0,0.0692 -0.43126,-0.0543 -0.95835,-0.27451 -0.5271,-0.22024 -0.99191,-0.40043 -1.03292,-0.40043 -0.041,0 0.15724,0.61005 0.44055,1.35566 0.62218,1.63745 0.65903,1.59104 -1.04883,1.32106 l -1.38034,-0.2182 0.17181,0.55668 c 0.0945,0.30617 0.41326,1.03293 0.70836,1.61501 0.73909,1.45783 1.7768,5.32577 1.7768,6.62278 v 1.07025 l 1.75642,2.19525 c 1.28638,1.60777 1.81775,2.10073 1.98558,1.84203 0.57899,-0.89248 1.31381,-3.95217 1.33016,-5.53865 l 0.018,-1.74583 -1.49066,-4.35364 -1.49066,-4.35363 -0.30142,-2.89635 -0.30143,-2.89637 0.33834,-3.50572 c 0.39114,-4.0528 0.26144,-3.95844 2.73387,-1.989 4.12288,3.28415 7.46601,6.71407 10.19464,10.45933 1.65926,2.27748 1.91963,2.30806 1.10462,0.12975 -1.57836,-4.21853 -8.22135,-11.09871 -14.37856,-14.89194 l -2.16035,-1.3309 -0.14773,-1.09886 -0.14774,-1.09885 0.94149,0.39106 c 25.63007,10.64576 30.82416,47.3737 9.24016,65.33808 -2.61174,2.17374 -2.7594,2.21811 -3.27795,0.98485 l -0.3508,-0.83431 1.41874,-1.09455 c 2.65696,-2.04982 8.06654,-8.28919 8.06654,-9.30386 0,-0.12516 -0.74981,0.3617 -1.66626,1.08191 -3.2528,2.55628 -7.93152,4.63606 -11.16603,4.9635 -0.87312,0.0884 -2.06374,0.39962 -2.64582,0.69162 l -1.05832,0.53091 1.6702,0.45719 c 4.50096,1.23207 6.37729,5.67777 3.65162,8.65199 l -0.86402,0.94281 -1.56746,0.22561 c -0.86209,0.12408 -1.98417,0.16374 -2.49349,0.0881 -0.57908,-0.086 -1.42169,0.053 -2.24896,0.37094 l -1.32291,0.50843 -0.14945,0.88677 c -0.23728,1.40792 -0.67145,1.96896 -2.02497,2.61666 l -1.26517,0.60543 -1.66102,-0.0525 c -1.987552,-0.0629 -2.629162,-0.28354 -3.478332,-1.19637 l -0.64143,-0.68954 h -3.35246 -3.35245 l -0.5034,0.55626 c -0.77066,0.85156 -1.6754,1.21077 -3.432,1.36261 l -1.60443,0.1387 z m 2.68984,-2.3422 c -0.22883,-0.59633 0.14532,-2.6316 0.58711,-3.1937 l 0.392,-0.49874 -0.16448,0.97494 c -0.18513,1.09735 0.31423,2.93991 0.75678,2.79239 1.22328,-0.40776 1.7622,-3.20748 0.87736,-4.55792 l -0.45867,-0.7 0.67916,0.44499 0.67914,0.445 -0.003,-0.89033 c -0.002,-0.48968 -0.23795,-3.5097 -0.52529,-6.71116 -0.28734,-3.20146 -0.70664,-8.08302 -0.93178,-10.84791 -0.49811,-6.11721 -0.33581,-5.63041 -2.24044,-6.71968 -0.8644,-0.49437 -2.52857,-1.65552 -3.69814,-2.58035 -2.55782,-2.02256 -2.52535,-2.23082 -0.65853,4.22418 0.80738,2.79171 1.89395,7.39757 2.41459,10.23522 l 0.94663,5.15938 0.0328,3.44941 0.0328,3.4494 -0.52917,0.75093 c -1.26849,1.8001 -1.45249,2.1924 -1.45381,3.09963 -8e-4,0.52788 0.1739,1.10527 0.38815,1.28308 l 0.38954,0.32329 0.17592,-1.10015 c 0.0968,-0.60509 0.38836,-1.36107 0.64801,-1.67996 l 0.47209,-0.5798 -0.28508,1.07432 c -0.35975,1.35578 -0.0929,2.4559 0.66529,2.74253 0.71828,0.27154 1.01054,0.13134 0.81087,-0.38899 z m 16.746632,-0.56974 c 0.086,-0.34267 0.0308,-1.12593 -0.12258,-1.74058 l -0.27896,-1.11754 0.47682,0.5798 c 0.26225,0.31889 0.55598,1.07487 0.65274,1.67996 l 0.17592,1.10015 0.38954,-0.32329 c 0.62047,-0.51494 0.48049,-2.17291 -0.26982,-3.19593 -0.36266,-0.49446 -0.85402,-1.31574 -1.09193,-1.82507 l -0.43255,-0.92604 0.14956,-3.175 c 0.19121,-4.05948 1.83135,-12.67585 3.61557,-18.99429 1.54929,-5.48644 1.55417,-5.52404 0.60153,-4.63526 -0.92622,0.86412 -4.09454,3.09786 -5.54448,3.90899 -1.444952,0.80835 -1.230082,-0.47837 -2.586182,15.48723 -0.23485,2.7649 -0.51641,6.00935 -0.6257,7.2099 -0.10929,1.20054 -0.15541,2.18281 -0.10248,2.18281 0.0529,0 0.31976,-0.11963 0.59296,-0.26585 l 0.49674,-0.26584 -0.38021,0.72886 c -0.5122,0.98191 -0.47277,1.82937 0.14884,3.1992 0.82415,1.81613 2.007929,0.75693 1.72378,-1.54235 l -0.1469,-1.18869 0.427209,0.60992 c 0.234963,0.33545 0.490423,1.30716 0.567703,2.15935 l 0.14049,1.54943 0.63301,-0.28842 c 0.34815,-0.15863 0.70338,-0.56878 0.78938,-0.91145 z M 80.316188,162.16714 c -0.0606,-0.0491 -0.79906,-0.53975 -1.64094,-1.09027 -2.19775,-1.43714 -4.49854,-3.80548 -5.3051,-5.46085 -0.8091,-1.66057 -1.16783,-3.14915 -0.75893,-3.14915 0.15215,0 0.3603,0.38695 0.46255,0.85989 0.58153,2.68973 5.01713,7.45322 8.00937,8.60145 l 0.44429,0.17049 -0.50569,-0.78102 c -0.27813,-0.42956 -0.99747,-1.37633 -1.59853,-2.10394 -1.19014,-1.4407 -2.30538,-2.94636 -2.64567,-3.57187 -0.11874,-0.21828 0.68988,0.48965 1.79695,1.57319 2.5916,2.53651 2.61187,2.44284 0.44213,-2.04304 -2.06211,-4.26337 -2.1137,-4.54652 -0.34327,-1.88403 1.51404,2.2769 1.63693,2.08072 0.76015,-1.21347 -2.28408,-8.58157 -4.53264,-10.20893 -6.95229,-5.03161 l -0.74193,1.5875 v 2.77812 2.77813 l 0.69173,1.45521 c 1.27426,2.68066 3.56027,4.89677 6.44086,6.24392 1.07119,0.50095 1.91929,0.66616 1.44432,0.28135 z m 27.128052,-0.66824 c 6.86662,-3.65935 8.89037,-13.82827 3.46012,-17.38631 l -0.68789,-0.45072 -0.63476,0.59632 c -1.07228,1.00736 -2.45442,3.98786 -3.31219,7.14253 -1.05073,3.86436 -0.94219,4.31536 0.49533,2.05834 1.04842,-1.6461 1.7045,-2.41467 1.1293,-1.32292 -0.7355,1.396 -2.94967,6.45038 -2.94967,6.73335 0,0.18251 0.97308,-0.61787 2.16239,-1.77862 2.35415,-2.29762 2.21123,-1.82569 -0.4426,1.46141 -3.14648,3.89732 -3.23483,4.28183 -0.52621,2.29011 4.29311,-3.15685 5.28688,-4.28603 6.13227,-6.96792 0.48126,-1.52676 1.04903,-1.94083 0.77372,-0.56428 -0.53623,2.68111 -2.37826,5.02258 -5.89354,7.49147 -2.82686,1.98539 -2.69789,2.29153 0.29373,0.69724 z m -35.308092,-1.89827 c -0.21828,-0.14656 -1.20389,-0.69702 -2.19024,-1.22325 -2.03633,-1.08641 -2.21589,-1.4301 -0.3233,-0.61885 2.93172,1.25669 0.58261,-0.76589 -3.07487,-2.64745 -5.45241,-2.80495 -9.02216,-6.8005 -9.89573,-11.07608 -0.30445,-1.49014 0.40051,-0.8651 1.05125,0.93206 0.86181,2.38011 1.9013,4.00531 3.69771,5.78126 l 1.60706,1.58875 3.42368,1.77854 c 3.98456,2.06992 3.64331,2.06219 3.13967,0.0711 -0.49496,-1.95683 -0.50296,-1.96659 -2.67529,-3.26339 -2.68415,-1.60235 -3.84547,-2.73649 -5.91437,-5.77589 -1.31784,-1.93605 -2.32669,-3.09957 -3.33045,-3.8411 -1.54434,-1.14086 -2.44833,-2.65376 -2.42175,-4.05295 l 0.0151,-0.79375 0.40421,1.14301 c 0.41484,1.17306 1.59093,2.52492 3.33245,3.83051 0.54304,0.40711 1.6883,1.77633 2.54503,3.04271 1.81022,2.6758 2.61572,3.48483 5.29916,5.32235 3.25095,2.22613 3.42019,1.29218 0.3493,-1.92768 -1.12804,-1.18277 -2.40796,-2.55295 -2.84427,-3.04484 l -0.79328,-0.89436 1.6896,1.29123 c 0.92929,0.71018 2.27057,1.81526 2.98064,2.45573 1.41453,1.27589 1.46878,1.27944 1.70244,0.11116 l 0.16048,-0.80243 -0.8538,-0.97242 c -0.46959,-0.53484 -2.11815,-1.88633 -3.66346,-3.00333 -7.3119,-5.28525 -9.55274,-7.9116 -10.00446,-11.72564 -0.41172,-3.47634 -1.28965,2.704 -1.03815,7.30819 0.54693,10.01234 9.61536,20.94964 17.62566,21.25805 l 0.39688,0.0153 -0.39688,-0.26646 z m 44.941432,-1.07206 c 10.48539,-4.86955 15.16713,-13.47295 13.79834,-25.35654 -0.38402,-3.33406 -0.65362,-3.84648 -0.91655,-1.74209 -0.4365,3.49369 -3.08458,6.74345 -8.74301,10.72956 -1.74625,1.23016 -3.7567,2.79608 -4.46766,3.47983 l -1.29265,1.24318 0.17093,0.85466 c 0.24364,1.21823 0.32791,1.22934 1.42705,0.18826 1.49587,-1.41686 5.03005,-4.11291 4.42889,-3.37858 -0.28995,0.35419 -1.56987,1.73996 -2.84427,3.0795 -2.81947,2.96358 -3.26014,4.41271 -0.85715,2.81869 2.74731,-1.82241 3.94734,-2.96297 5.81752,-5.52922 1.11993,-1.53675 2.70478,-3.322 3.63745,-4.09737 1.02825,-0.85483 1.92303,-1.88801 2.36792,-2.73417 l 0.71513,-1.36012 0.007,0.66146 c 0.0126,1.2534 -0.9507,2.84711 -2.31227,3.8253 -0.87422,0.62807 -1.95524,1.87565 -3.25074,3.75161 -2.10402,3.04674 -3.3348,4.24066 -6.19265,6.00716 -1.93869,1.19835 -2.28663,1.65827 -2.7322,3.61152 -0.35437,1.55352 -0.60114,1.58805 3.25655,-0.45567 5.02122,-2.66012 6.85009,-4.51658 8.51343,-8.64187 0.91169,-2.26112 1.60365,-3.03437 1.29637,-1.44867 -0.38845,2.00457 -2.34116,5.32513 -4.25983,7.2438 l -1.86903,1.86903 -3.28632,1.70396 c -3.95709,2.05174 -6.72233,4.23073 -3.84141,3.02701 1.69299,-0.70738 1.31325,-0.24393 -0.64201,0.78353 -3.21252,1.68813 -1.63169,1.58605 2.0715,-0.13376 z M 96.067098,145.71248 c 2.42798,-0.63241 8.625102,-4.29249 8.608652,-5.08436 -0.0103,-0.49353 -6.037322,-4.03625 -6.866672,-4.03625 -0.10539,0 0.0242,0.62508 0.28788,1.38906 1.975842,5.72386 -5.66134,9.85915 -9.63487,5.21698 -1.5136,-1.76831 -1.80522,-3.92967 -0.79644,-5.90302 0.66815,-1.30704 -1.26727,-0.59486 -4.91597,1.80892 -2.19257,1.44447 -2.15923,1.35413 -0.88532,2.39895 4.91024,4.02722 9.58439,5.41265 14.20274,4.20972 z m -22.57317,-3.66751 0.2881,-0.63231 -1.11133,-1.40594 c -1.67128,-2.11432 -2.89534,-4.7783 -3.7542,-8.17036 -0.74775,-2.9533 -1.31288,-7.89461 -0.77242,-6.75387 0.13789,0.29105 0.25908,0.79706 0.26931,1.12448 0.039,1.24958 0.53029,0.48938 1.56141,-2.41619 1.69202,-4.76788 2.73437,-11.67875 1.9367,-12.84039 l -0.25667,-0.37379 -2.56795,2.35816 c -11.37956,10.44988 -13.31406,21.55258 -4.64317,26.64863 1.03112,0.60601 1.01983,0.46044 -0.10826,-1.39661 -2.04736,-3.37031 -3.04591,-11.08778 -1.6981,-13.12397 0.37822,-0.57138 0.77487,-1.63414 0.88145,-2.36168 0.19226,-1.31241 1.57376,-4.49723 2.08889,-4.8156 0.17202,-0.10631 0.19078,0.0159 0.0523,0.34055 -1.29894,3.04367 -1.37816,4.31864 -0.20177,3.2473 0.90125,-0.82078 1.96191,-1.48562 2.90929,-1.82358 l 0.72597,-0.25898 -0.79375,0.58009 c -0.43656,0.31905 -1.55212,1.32617 -2.47902,2.23804 l -1.68526,1.65796 0.10713,1.68239 c 0.0749,1.17673 0.3401,2.14285 0.88225,3.2144 l 0.77512,1.532 0.18883,-0.48993 c 0.10385,-0.26947 0.28142,-0.84713 0.39459,-1.28369 l 0.20576,-0.79375 0.14384,1.86549 c 0.0909,1.17829 0.32949,2.15296 0.64782,2.64584 l 0.50398,0.78033 -0.60927,-0.52916 -0.60927,-0.52917 0.18278,1.17584 c 0.64175,4.12858 5.62948,10.91671 6.54495,8.90747 z M 114.862,140.62676 c 1.78695,-2.38286 3.48351,-5.76903 3.74491,-7.47447 l 0.18249,-1.19063 -0.48105,0.39688 -0.48106,0.39687 0.43776,-0.84676 c 0.2761,-0.53405 0.4506,-1.56 0.47252,-2.77812 l 0.0348,-1.93137 0.26856,1.3982 c 0.45094,2.34777 2.0573,0.19602 2.26278,-3.03105 l 0.10463,-1.64305 -1.36536,-1.44367 c -0.75095,-0.79401 -1.83809,-1.77126 -2.41587,-2.17166 -0.57778,-0.4004 -1.00036,-0.77815 -0.93906,-0.83945 0.17807,-0.17807 2.05435,0.85724 3.17996,1.75466 0.56808,0.45291 1.06971,0.78664 1.11474,0.74161 0.15462,-0.15461 -0.61021,-2.70356 -1.08894,-3.62913 -0.35743,-0.69103 -0.37964,-0.84364 -0.0875,-0.60135 0.6868,0.56966 1.80986,3.09427 2.0599,4.63062 0.13865,0.85184 0.55989,1.9668 0.9867,2.61161 l 0.74478,1.12518 -0.0137,1.34249 c -0.0441,4.33837 -0.90042,8.17707 -2.44854,10.97606 l -0.9381,1.69607 0.85977,-0.50544 c 1.34818,-0.79257 3.95393,-3.65661 4.59984,-5.05578 l 0.58652,-1.2705 -0.0134,-3.04271 c -0.0197,-4.47312 -1.02039,-7.26423 -4.025,-11.22622 -1.69019,-2.22873 -7.86193,-8.35294 -8.41778,-8.35294 h -0.45654 l 0.16442,3.24115 c 0.30485,6.00934 3.15985,14.92462 3.77046,11.77395 l 0.21792,-1.12448 0.0965,0.99234 c 0.33884,3.48604 -2.4333,11.89857 -4.8443,14.70088 l -0.9818,1.14114 0.29379,0.6448 c 0.50654,1.11172 1.17793,0.77637 2.81432,-1.40573 z m -34.249202,-2.43462 c 7.95089,-6.61681 18.87323,-6.27381 25.269082,0.79353 0.25714,0.28414 0.62767,0.51662 0.8234,0.51662 1.61247,0 -2.71163,-4.43827 -5.72387,-5.875 -1.964292,-0.9369 -2.153752,-1.12963 -1.323783,-1.34668 1.045803,-0.27348 5.062583,2.35777 6.640363,4.34988 1.14012,1.43952 1.42465,1.26533 0.60331,-0.36935 -1.27274,-2.53308 -5.10685,-6.7684 -7.025343,-7.76049 l -0.736049,-0.38063 -0.3955,0.76483 c -0.99476,1.92365 -2.98671,2.75813 -4.82657,2.02196 l -1.07996,-0.43212 -1.33991,0.43827 -1.33992,0.43826 -0.9237,-0.30485 c -0.88131,-0.29086 -2.60462,-1.90605 -2.86406,-2.68438 -0.31956,-0.95866 -6.34323,4.96556 -7.59404,7.46866 -1.05164,2.1045 -0.83971,2.27837 0.71673,0.58802 2.14454,-2.32905 5.88215,-4.60095 6.59541,-4.009 l 0.3414,0.28334 -1.25984,0.58929 c -3.27303,1.53095 -8.09175,6.21999 -6.39201,6.21999 0.14331,0 0.96899,-0.58957 1.83486,-1.31015 z m 11.56834,-10.0092 c 0.0529,-0.15873 -0.21369,-0.49164 -0.59243,-0.7398 -1.47017,-0.96329 -1.41565,-2.1187 0.13019,-2.75901 l 0.81757,-0.33864 1.01324,0.30357 c 1.83386,0.54944 2.04424,1.61616 0.53121,2.69353 -1.38154,0.98375 -0.26636,1.92239 1.43791,1.2103 0.84155,-0.35162 1.15221,-0.8104 2.0866,-3.08152 0.94186,-2.28924 6.086082,-5.28367 9.077002,-5.28367 1.00657,0 1.00046,-0.4694 -0.0247,-1.89636 l -0.97233,-1.3534 1.15089,0.14045 c 0.633,0.0772 1.38903,0.2322 1.68007,0.34433 l 0.52917,0.20389 -0.66146,-0.72896 c -2.96603,-3.26874 -12.112082,0.48277 -12.178882,4.9955 l -0.008,0.54351 -0.26988,-0.46337 c -1.65277,-2.83771 2.58274,-7.76422 7.562012,-8.79573 1.16417,-0.24118 2.27395,-0.48847 2.46619,-0.54954 0.42758,-0.13584 -0.0697,-0.87734 -2.78837,-4.15817 -1.84328,-2.22439 -2.39727,-2.45746 -1.51709,-0.63827 l 0.40968,0.84675 -0.43108,-0.52916 c -0.2371,-0.29105 -0.78036,-1.21378 -1.20725,-2.05052 -0.924712,-1.81255 -1.158252,-1.91166 -0.935112,-0.39688 l 0.165639,1.12448 -0.301919,-0.50707 c -1.11203,-1.86768 0.0466,-4.97134 3.304442,-8.851909 1.25954,-1.5003 2.29008,-2.90365 2.29008,-3.11858 v -0.39077 l -0.85989,0.59271 c -3.71169,2.55836 -7.406972,7.430289 -7.764262,10.236549 l -0.17831,1.40051 -0.44945,-0.73906 c -1.73994,-2.86111 -3.69467,-3.0268 -5.59771,-0.47451 l -0.69901,0.93748 -0.17218,-1.14822 c -0.0947,-0.63152 -0.53034,-1.90554 -0.96808,-2.83115 l -0.7959,-1.68293 -2.70084,-2.627039 c -1.48545,-1.44488 -3.02825,-2.86044 -3.42843,-3.14569 l -0.7276,-0.51865 v 0.38298 c 0,0.21064 0.97148,1.5582 2.15884,2.99458 3.22767,3.904579 4.3344,6.829829 3.39049,8.961599 -0.15888,0.35882 -0.18459,0.16717 -0.0799,-0.59531 0.22375,-1.6293 -0.24609,-1.39727 -1.07158,0.52917 -0.38972,0.9095 -0.95009,1.9513 -1.24527,2.3151 l -0.5367,0.66146 0.55969,-1.14443 c 1.07151,-2.19101 0.43622,-1.9946 -1.58809,0.49096 -2.15748,2.64908 -2.94458,3.75022 -2.79069,3.90411 0.0545,0.0545 1.11031,0.32 2.34636,0.59011 4.75809,1.03977 7.25742,3.25853 7.84294,6.96249 0.30873,1.95302 0.0505,2.21478 -0.69974,0.70926 -1.36933,-2.7479 -4.93731,-5.08114 -8.01676,-5.24247 l -1.72482,-0.0904 -1.25677,0.80695 c -1.47428,0.9466 -1.65322,1.42452 -0.39862,1.06471 0.47198,-0.13537 1.19563,-0.24612 1.60811,-0.24612 h 0.74997 l -0.94666,1.10596 c -1.13678,1.32806 -1.1835,1.74387 -0.21905,1.9495 2.40589,0.51298 5.24223,1.57693 6.58851,2.47145 l 1.54742,1.02817 1.19063,2.34485 1.19062,2.34485 0.92378,0.29858 c 0.94951,0.30689 1.88555,0.13698 2.05559,-0.37313 z"
         id="path8548" /></g></g></svg>
