<?xml version="1.0" encoding="UTF-8" standalone="no"?>
<!-- Created with Inkscape (http://www.inkscape.org/) -->

<svg
   width="210mm"
   height="297mm"
   viewBox="0 0 210 297"
   version="1.1"
   id="svg5"
   xml:space="preserve"
   inkscape:version="1.2.2 (732a01da63, 2022-12-09)"
   sodipodi:docname="stickman-right.svg"
   xmlns:inkscape="http://www.inkscape.org/namespaces/inkscape"
   xmlns:sodipodi="http://sodipodi.sourceforge.net/DTD/sodipodi-0.dtd"
   xmlns="http://www.w3.org/2000/svg"
   xmlns:svg="http://www.w3.org/2000/svg"><sodipodi:namedview
     id="namedview7"
     pagecolor="#ffffff"
     bordercolor="#999999"
     borderopacity="1"
     inkscape:showpageshadow="0"
     inkscape:pageopacity="0"
     inkscape:pagecheckerboard="0"
     inkscape:deskcolor="#d1d1d1"
     inkscape:document-units="mm"
     showgrid="false"
     inkscape:zoom="0.73851712"
     inkscape:cx="398.77207"
     inkscape:cy="561.93687"
     inkscape:window-width="1920"
     inkscape:window-height="1009"
     inkscape:window-x="1912"
     inkscape:window-y="-8"
     inkscape:window-maximized="1"
     inkscape:current-layer="layer1" /><defs
     id="defs2" /><g
     inkscape:label="Layer 1"
     inkscape:groupmode="layer"
     id="layer1"><path
       style="fill:#ffffff;stroke-width:0.264583"
       d="m 8.5939694,223.08432 c -1.02376,-0.43673 -1.33751,-1.26747 -0.79272,-2.09893 0.47128,-0.71926 1.41997,-0.94974 3.9093896,-0.94974 1.00045,0 1.81901,-0.11095 1.81901,-0.24657 0,-0.13561 -0.35719,-0.5009 -0.79375,-0.81176 -0.92032,-0.65532 -1.01007,-1.30972 -0.27134,-1.97826 0.46064,-0.41688 0.62226,-0.43143 1.36682,-0.12302 0.46442,0.19237 1.4666,0.98198 2.22706,1.75469 1.17527,1.19419 1.52938,1.40492 2.36087,1.40492 h 0.97821 l -0.67392,-0.80091 c -0.79254,-0.94188 -0.65851,-1.58034 0.33173,-1.58034 0.90116,0 1.77551,0.61285 2.28783,1.60356 l 0.40216,0.77769 h 5.84644 c 4.985,0 5.80108,-0.0547 5.5386,-0.37092 -0.36678,-0.44194 -0.34485,-4.55453 0.0281,-5.26733 0.16766,-0.32045 0.48537,-0.45175 0.96035,-0.39688 l 0.70981,0.082 -0.0206,2.44232 c -0.0166,1.97468 -0.11312,2.54463 -0.50402,2.97657 -0.47725,0.52735 -0.47002,0.53423 0.56074,0.53423 1.00032,0 1.07365,-0.06 1.74406,-1.42693 0.97912,-1.99639 2.11683,-3.19684 3.81901,-4.02965 0.8041,-0.39341 1.49624,-0.84467 1.53809,-1.00279 0.0418,-0.15813 0.33709,-2.54969 0.6561,-5.31459 0.60044,-5.20403 1.16966,-8.91808 2.2708,-14.81666 0.97484,-5.22196 1.88559,-13.89063 1.45939,-13.89063 -0.10417,0 -0.34679,0.29408 -0.53915,0.65351 -0.51452,0.96139 -2.03175,1.90042 -3.90432,2.41643 -2.18162,0.60118 -4.20218,0.21767 -5.21883,-0.99056 -1.45641,-1.73084 -1.2248,-3.33333 0.80012,-5.53593 0.79178,-0.86126 1.43961,-1.68402 1.43961,-1.82836 0,-0.14433 -0.61112,-0.5721 -1.35805,-0.9506 -1.92287,-0.97439 -3.76316,-2.79732 -4.60265,-4.55924 -0.61681,-1.29456 -0.71871,-1.84591 -0.71889,-3.88962 -5.3e-4,-5.91375 3.38409,-10.99301 9.34523,-14.02433 5.11674,-2.60193 11.7998,-3.66447 16.64193,-2.6459 2.25418,0.47419 2.97998,0.82881 4.90452,2.39637 0.80774,0.65792 1.73288,1.29557 2.05587,1.41702 1.90293,0.71548 9.20067,-0.0644 18.57891,-1.98535 8.07768,-1.6546 7.91733,-1.60295 9.44901,-3.04335 2.15597,-2.0275 4.80601,-3.16084 11.020681,-4.71324 2.96363,-0.74031 5.83245,-1.34601 6.37514,-1.34601 1.09313,0 1.86246,0.62492 1.86246,1.51287 0,1.11306 -0.85587,1.6789 -3.9654,2.62163 -1.66492,0.50477 -3.06757,0.95819 -3.117,1.00762 -0.0494,0.0494 0.15423,0.49024 0.45257,0.9796 1.02731,1.68506 0.67371,4.20422 -0.82988,5.9124 -1.61537,1.83514 -4.17945,2.42532 -6.922081,1.59324 -1.51613,-0.45997 -2.7097,-1.1598 -3.6069,-2.11482 -0.71245,-0.75837 -1.31364,-0.75681 -4.10402,0.0107 -1.47721,0.40631 -4.73003,1.10161 -10.45104,2.23394 -3.90114,0.77213 -11.15807,1.47623 -13.20401,1.28112 l -1.1268,-0.10746 0.16939,0.80281 c 1.36391,6.46434 1.54117,8.35365 1.63917,17.47156 0.0609,5.66774 0.2379,10.12151 0.47837,12.03854 0.71925,5.73382 1.01057,11.25219 1.03711,19.64531 l 0.0266,8.40052 0.79375,0.004 c 1.45034,0.007 4.17867,0.79541 5.63296,1.62748 1.45663,0.83337 2.966,2.72243 2.966,3.71206 0,0.4516 0.53483,0.47736 9.9095,0.47736 h 9.90949 l 0.50072,-1.12448 c 0.52471,-1.17835 1.924221,-2.84427 2.389421,-2.84427 0.14951,0 0.45581,0.18398 0.68067,0.40884 0.36874,0.36874 0.36668,0.51799 -0.0209,1.52136 -0.23635,0.61188 -0.53089,1.22562 -0.65453,1.36386 -0.48686,0.54439 -0.148,0.67469 1.75454,0.67469 1.94572,0 1.98194,-0.0123 2.13264,-0.7276 0.3328,-1.57951 1.49418,-4.25412 2.0905,-4.81434 0.68646,-0.64489 1.39892,-0.64481 1.80504,2.1e-4 0.18717,0.29726 0.0356,0.92118 -0.54634,2.24896 -0.44295,1.01066 -0.88707,2.16499 -0.98695,2.56517 -0.17756,0.71146 -0.15601,0.72732 0.97157,0.71489 1.10603,-0.0122 1.19102,-0.0725 2.07921,-1.47623 1.60268,-2.53288 4.15509,-4.93221 6.53789,-6.1458 1.40053,-0.7133 2.09399,-0.71822 2.46901,-0.0175 0.436,0.81469 0.1711,1.19491 -1.48284,2.12834 -1.43694,0.81096 -4.87154,3.99348 -5.42416,5.02607 -0.23309,0.43552 -0.16794,0.49784 0.52049,0.49784 0.62532,0 1.15909,-0.38036 2.59907,-1.85209 1.48352,-1.51621 1.96303,-1.85208 2.64414,-1.85208 0.6212,0 0.87813,0.14538 1.01411,0.57382 0.14553,0.45853 -0.0635,0.80261 -1.0405,1.71257 -0.67244,0.6263 -1.22262,1.20151 -1.22262,1.27825 0,0.0767 6.9279,0.13951 15.39534,0.13951 h 15.39533 l -0.71096,-0.74208 c -0.39103,-0.40814 -0.71096,-0.92011 -0.71096,-1.13771 0,-0.50799 0.52276,-1.03062 1.03088,-1.03062 0.60009,0 2.20956,1.21054 2.80558,2.11016 l 0.52917,0.79873 2.71198,7.9e-4 c 2.42312,8e-4 2.71197,-0.0494 2.71197,-0.46972 0,-0.65877 1.77511,-4.30066 2.44663,-5.01962 0.60842,-0.6514 1.50074,-0.77545 1.99837,-0.27781 0.50558,0.50558 0.38397,0.99436 -0.70709,2.84211 -1.79621,3.04189 -1.85086,2.92577 1.37708,2.92577 h 2.7694 l 0.45287,-2.03556 c 0.86214,-3.87518 5.03903,-11.10073 7.07865,-12.24528 1.75136,-0.98279 2.24897,1.18008 0.65989,2.86823 -1.72628,1.8339 -4.00411,5.85098 -5.35933,9.45146 -0.36426,0.96776 -0.6623,1.80493 -0.6623,1.86036 0,0.0554 2.66271,0.10079 5.91714,0.10079 h 5.91714 l 0.73619,-1.06231 c 0.90756,-1.30962 3.43459,-3.032 5.23129,-3.56556 1.66975,-0.49587 1.89651,-0.49643 2.30372,-0.006 0.52939,0.63788 0.11292,1.65701 -0.75505,1.84765 -0.41712,0.0916 -1.69715,0.72617 -2.84452,1.41013 l -2.08612,1.24357 3.61111,0.0734 3.61112,0.0734 1.69261,-1.06126 c 1.75157,-1.09823 4.35626,-2.12832 5.38169,-2.12832 0.83866,0 1.32044,0.66381 1.00114,1.37939 -0.17002,0.38104 -0.82535,0.77094 -1.95585,1.16367 l -1.70015,0.59063 5.90437,0.0207 c 6.86892,0.024 7.44313,0.17269 7.45304,1.92958 0.002,0.44283 -0.19262,0.82355 -0.50879,0.99276 -0.35139,0.18806 -30.90149,0.27871 -97.03594,0.28794 -53.087701,0.007 -96.999351,0.0589 -97.581431,0.11429 -0.5820796,0.0554 -1.4339196,-0.0594 -1.8929796,-0.25525 z m 44.8877596,-3.26713 c 0,-0.44344 -1.2398,-1.36319 -2.37969,-1.76536 -1.32305,-0.4668 -7.0481,-0.83841 -8.55664,-0.55541 -0.93598,0.1756 -2.822,1.70169 -2.822,2.28347 0,0.15807 2.62758,0.25576 6.87917,0.25576 3.78354,0 6.87916,-0.0983 6.87916,-0.21846 z m 6.05553,-1.24935 c 0.74607,-1.72322 2.66376,-3.57343 4.38514,-4.23083 l 1.16539,-0.44507 0.0839,-4.27033 c 0.1515,-7.70628 -0.20748,-16.11047 -0.84354,-19.74846 -0.31804,-1.81901 -0.69115,-3.44482 -0.82914,-3.61293 -0.18474,-0.22506 -0.54429,-0.14311 -1.36379,0.31085 -2.51814,1.39489 -4.77043,1.62603 -10.90012,1.11863 -0.7542,-0.0624 -0.81812,0.0153 -1.36061,1.65429 -0.66313,2.00348 -1.94906,7.59493 -1.94906,8.47486 0,0.33216 -0.23358,1.92472 -0.51907,3.53901 -0.89018,5.03344 -1.63476,10.66945 -1.54823,11.71898 l 0.0829,1.00569 1.98438,0.16377 c 2.46162,0.20315 5.10608,0.869 6.24371,1.57209 1.1726,0.72471 2.36936,2.13308 2.78182,3.27371 0.29025,0.80269 0.46163,0.94288 1.14793,0.93904 0.72396,-0.004 0.87156,-0.15422 1.43832,-1.4633 z m 14.84656,1.08895 c 0,-0.42896 -1.06661,-1.22998 -2.24896,-1.68896 -1.50125,-0.58278 -5.12402,-0.82792 -6.42941,-0.43506 -1.20278,0.36198 -3.0584,1.87038 -2.8051,2.28022 0.0757,0.12246 2.69043,0.22266 5.81054,0.22266 4.74631,0 5.67293,-0.0619 5.67293,-0.37886 z m -14.94896,-35.76717 c 2.25931,-0.70983 3.92379,-2.36134 4.36925,-4.33522 0.83446,-3.69757 0.36533,-13.74748 -0.91904,-19.68795 -0.79903,-3.69568 -1.49216,-5.56851 -2.52378,-6.8192 -3.19998,-3.87953 -16.69612,-1.34073 -21.54554,4.053 -1.12507,1.25134 -2.93745,4.14517 -2.72754,4.35507 0.057,0.057 0.57085,-0.31582 1.14183,-0.82855 1.6166,-1.45167 3.30564,-2.44988 5.35958,-3.16749 2.00757,-0.7014 4.44718,-0.87007 5.37814,-0.37183 1.4032,0.75096 2.33415,4.98651 2.52474,11.48674 0.12402,4.23003 -0.16176,10.49224 -0.5977,13.09688 -0.20746,1.23955 0.24412,1.78093 2.01247,2.4126 1.78936,0.63919 5.15134,0.55252 7.52759,-0.19405 z m -7.75846,-3.15857 c 0.11966,-0.5747 0.58923,-0.60987 0.69663,-0.0522 0.0558,0.28961 -0.074,0.46302 -0.34651,0.46302 -0.25419,0 -0.40004,-0.17114 -0.35012,-0.41085 z m 0.32243,-1.88304 c -0.41091,-0.14877 -0.12187,-1.41027 0.32312,-1.41027 0.21168,0 0.36603,0.27233 0.36603,0.64584 0,0.69138 -0.21923,0.93456 -0.68915,0.76443 z m -0.1046,-3.37301 c 0,-0.63187 0.3068,-1.2174 0.55689,-1.06284 0.40515,0.2504 0.273,1.43808 -0.16001,1.43808 -0.21828,0 -0.39688,-0.16886 -0.39688,-0.37524 z m 0,-3.43958 c 0,-0.20638 0.0761,-0.57355 0.16911,-0.81594 0.13491,-0.35155 0.21437,-0.36931 0.39283,-0.0878 0.3583,0.56523 0.26619,1.27895 -0.16506,1.27895 -0.21828,0 -0.39688,-0.16885 -0.39688,-0.37523 z m 0,-3.60913 c 0,-0.4722 0.11022,-0.74125 0.26459,-0.64585 0.14552,0.0899 0.26458,0.45416 0.26458,0.80937 0,0.35521 -0.11906,0.64584 -0.26458,0.64584 -0.14553,0 -0.26459,-0.36421 -0.26459,-0.80936 z m -0.3638,-2.31213 c -0.0717,-0.11608 -0.0211,-0.38397 0.11263,-0.59531 0.18978,-0.3 0.24396,-0.25372 0.24712,0.21107 0.004,0.61199 -0.13026,0.75557 -0.35975,0.38424 z m -0.52917,-3.175 c -0.0718,-0.11608 -0.0358,-0.36427 0.08,-0.55153 0.15343,-0.24824 0.24948,-0.19107 0.35465,0.21107 0.13916,0.53216 -0.16762,0.77248 -0.43462,0.34046 z m -9.92828,16.31401 c 1.95248,-0.65396 2.6433,-2.13185 1.59921,-3.42124 l -0.49078,-0.6061 -0.18196,0.96993 c -0.13182,0.70266 -0.50348,1.23868 -1.34876,1.94525 -1.53171,1.28035 -1.3679,1.71176 0.42229,1.11216 z m 5.52959,-8.57274 c 0,-3.78971 -0.39714,-7.87013 -0.90701,-9.31903 -0.30275,-0.86034 -0.44415,-0.97852 -1.08483,-0.90665 -1.63699,0.18364 -5.68027,2.81372 -6.93537,4.51134 -0.30816,0.41679 -0.64273,1.1973 -0.7435,1.73446 -0.1709,0.91099 -0.10364,1.0513 1.00035,2.08661 0.7799,0.73139 2.11062,1.51263 3.90167,2.29059 1.65483,0.7188 3.04155,1.51683 3.54496,2.04004 0.45477,0.47267 0.91615,0.86412 1.02529,0.86988 0.10914,0.006 0.19844,-1.48249 0.19844,-3.30724 z m 55.705161,-19.97422 c 1.30808,-1.08561 -0.5106,-3.16639 -2.767551,-3.16639 -1.69379,0 -2.90468,1.26092 -2.23318,2.32546 0.69652,1.10421 4.011761,1.6617 5.000731,0.84093 z m -80.311411,67.03716 c -0.50933,-0.96726 -1.49601,-2.52542 -2.19264,-3.46258 -0.85566,-1.15111 -1.21609,-1.86304 -1.11094,-2.19434 0.184,-0.57974 0.97823,-0.88394 1.70535,-0.65316 0.68916,0.21873 2.69213,3.2684 3.60033,5.48177 0.60339,1.4705 0.66996,1.84414 0.38889,2.18281 -0.72966,0.87919 -1.42106,0.48752 -2.39099,-1.3545 z m 148.607641,1.58673 c -0.65632,-0.65632 0.55182,-2.81288 3.14487,-5.61367 2.77253,-2.99467 7.28125,-5.85161 9.2348,-5.85161 0.76856,0 0.95604,0.11331 1.09347,0.66086 0.2633,1.04906 0.0186,1.31427 -2.17375,2.35538 -2.23802,1.06283 -6.34232,4.22736 -7.84007,6.0449 -1.64108,1.99148 -2.27685,2.58053 -2.78523,2.58053 -0.27374,0 -0.57708,-0.0794 -0.67409,-0.17639 z m -87.606551,-0.59368 c -0.28608,-0.4629 -0.22634,-2.29134 0.0944,-2.89075 0.47591,-0.88924 1.19538,-0.62908 1.30034,0.47021 0.14479,1.51632 -0.17548,2.66144 -0.74435,2.66144 -0.27585,0 -0.56855,-0.10841 -0.65044,-0.2409 z M 131.6823,218.625 c -0.68394,-0.50011 -0.35131,-1.27626 1.09107,-2.54589 1.28718,-1.13303 3.38456,-2.24632 4.74698,-2.51972 0.92854,-0.18633 1.77157,0.40818 1.63152,1.15056 -0.0447,0.237 -0.91385,0.85495 -1.93144,1.37321 -1.91786,0.97679 -3.43757,1.82811 -4.46425,2.50082 -0.49782,0.32618 -0.67466,0.33294 -1.07388,0.041 z m -42.090641,-0.4594 c -0.36282,-1.14313 2.53021,-4.31151 3.80234,-4.16425 1.25309,0.14506 1.01196,0.98762 -0.83912,2.93206 -1.77003,1.85932 -2.64828,2.22452 -2.96322,1.23219 z m -61.55314,-0.25497 c -0.36731,-0.21438 -0.42349,-0.61143 -0.33974,-2.401 0.0552,-1.17928 0.17514,-2.37979 0.26656,-2.66781 0.0914,-0.28802 -0.0999,-2.11833 -0.42516,-4.06736 -0.64234,-3.8492 -0.56185,-4.34922 0.70014,-4.34922 1.32032,0 2.00076,2.50182 1.94293,7.14368 -0.0387,3.10505 -0.38865,5.69104 -0.8504,6.28392 -0.30515,0.39181 -0.69239,0.4091 -1.29433,0.0578 z m 59.31581,-1.96887 c -0.26243,-0.31622 -0.13517,-0.77077 0.67476,-2.40992 1.62526,-3.28929 4.51848,-6.06871 6.12446,-5.88357 1.35465,0.15615 1.03571,0.88526 -1.49375,3.41472 -1.32054,1.32054 -2.40098,2.51305 -2.40098,2.65003 0,0.30448 -2.10551,2.61847 -2.38256,2.61847 -0.10916,0 -0.34403,-0.17538 -0.52193,-0.38973 z m -3.92999,-1.9583 c -0.62619,-0.39697 -0.0237,-3.00188 0.94077,-4.06764 0.54972,-0.60742 1.31954,-0.5914 1.51727,0.0316 0.0864,0.2723 -0.15747,1.34386 -0.54199,2.38125 -0.69696,1.88029 -1.06243,2.19592 -1.91605,1.65479 z M 48.815789,145.8613 c -6.58257,-1.14233 -12.11409,-7.4362 -12.70944,-14.46106 -0.18542,-2.1879 0.63241,-5.76976 1.83463,-8.03511 1.17144,-2.20735 3.86699,-5.00225 5.94549,-6.16462 2.76434,-1.54591 4.50001,-1.96473 8.15654,-1.96822 3.45766,-0.003 5.23214,0.45094 7.92371,2.0283 1.679,0.98397 4.0876,3.42903 5.21209,5.29102 2.82037,4.67009 2.7902,11.55123 -0.0707,16.12467 -2.73775,4.37657 -7.15763,7.08687 -12.02326,7.37273 -1.38231,0.0812 -3.17319,0.002 -4.26906,-0.18771 z m 8.15936,-4.33134 c 2.27242,-1.0634 4.64205,-3.43891 5.82271,-5.83717 0.79644,-1.61779 0.87824,-2.01709 0.96355,-4.70336 0.0896,-2.82078 0.0592,-3.01712 -0.77641,-5.02444 -0.69604,-1.67196 -1.21639,-2.43388 -2.60676,-3.81695 -2.05665,-2.04585 -3.89731,-3.0059 -6.63192,-3.45908 -6.5969,-1.09323 -12.69254,3.25879 -13.82508,9.87048 -0.84072,4.90806 1.94553,10.54004 6.30219,12.73896 2.1478,1.08405 2.77876,1.20052 6.07755,1.1219 2.63365,-0.0628 3.09243,-0.15016 4.67417,-0.89034 z m -5.61506,0.18595 c -0.5114,-0.31606 -0.24833,-0.5036 0.38429,-0.27394 0.28138,0.10216 0.39476,0.25795 0.25195,0.34621 -0.14281,0.0883 -0.42911,0.0557 -0.63624,-0.0723 z m -2.90544,-1.45213 c 0,-0.42703 0.24233,-0.49034 0.9044,-0.23628 0.64413,0.24718 0.49603,0.63315 -0.24294,0.63315 -0.41158,0 -0.66146,-0.14993 -0.66146,-0.39687 z m -1.94028,-1.10243 c -0.097,-0.097 -0.17639,-0.39886 -0.17639,-0.67077 0,-0.41239 0.0878,-0.44741 0.52917,-0.21118 0.59481,0.31834 0.71815,1.05834 0.17639,1.05834 -0.19403,0 -0.43216,-0.0794 -0.52917,-0.17639 z m -2.51152,-2.81723 c -0.5967,-0.63516 -0.757,-1.23972 -0.32872,-1.23972 0.24288,0 1.34094,1.38757 1.34094,1.69449 0,0.33776 -0.46317,0.12966 -1.01222,-0.45477 z m -2.05723,-3.501 c -0.093,-0.37057 -0.0856,-0.75734 0.0166,-0.85948 0.2198,-0.21979 0.93619,0.68849 0.93619,1.18696 0,0.62827 -0.7802,0.36011 -0.95278,-0.32748 z m -0.42851,-3.22882 c -0.15771,-0.60807 0.0398,-1.16719 0.34555,-0.97822 0.31037,0.19182 0.31753,1.44124 0.008,1.44124 -0.12854,0 -0.28776,-0.20836 -0.35381,-0.46302 z m 0.14693,-3.27187 c 0.0928,-0.3469 0.17043,-0.72003 0.17241,-0.82917 0.002,-0.10914 0.13059,-0.19844 0.28577,-0.19844 0.4127,0 0.18051,1.39276 -0.25613,1.53637 -0.2765,0.0909 -0.32791,-0.0385 -0.20205,-0.50876 z m 1.23841,-2.79793 c 0.002,-0.11773 0.11947,-0.39265 0.26053,-0.61093 0.22104,-0.34202 0.25704,-0.33504 0.26053,0.0505 0.002,0.24607 -0.11501,0.52099 -0.26053,0.61093 -0.14552,0.0899 -0.26276,0.0672 -0.26053,-0.0505 z m 23.67389,-9.30646 c -3.37767,-1.53444 -4.3372,-5.91196 -1.90346,-8.68384 0.96949,-1.10419 3.1115,-2.19344 4.32081,-2.19722 2.50169,-0.008 5.00289,2.29445 5.52682,5.08721 0.22612,1.20533 -0.44244,3.33534 -1.40651,4.48107 -1.43569,1.70623 -4.37318,2.29608 -6.53766,1.31278 z m 3.99234,-3.29425 c 0.99789,-0.85834 1.00862,-2.57867 0.0222,-3.56505 -0.88373,-0.88373 -2.31849,-0.90116 -3.23589,-0.0393 -0.85158,0.80001 -1.00604,1.40067 -0.64303,2.50059 0.57276,1.73548 2.48577,2.28298 3.85668,1.10377 z m 7.12243,-7.81976 c -2.59529,-1.61187 -3.22286,-4.695807 -1.45282,-7.139281 1.05774,-1.460156 3.07144,-2.136019 4.86664,-1.633395 2.16329,0.605684 3.42125,2.264873 3.42125,4.512482 0,1.249024 -0.14158,1.767074 -0.72306,2.645744 -1.26857,1.91694 -4.32504,2.72429 -6.11201,1.61445 z m 3.45161,-3.0649 c 0.78737,-0.787373 0.82811,-1.553135 0.12026,-2.26098 -1.17436,-1.174359 -3.175,-0.412144 -3.175,1.20963 0,0.782595 0.96188,1.70079 1.78171,1.70079 0.34298,0 0.91584,-0.29225 1.27303,-0.64944 z m 33.854641,1.98117 c -5.88924,-0.68023 -12.83949,-5.153134 -16.221131,-10.439277 -0.37961,-0.593402 -0.71922,-1.12283 -0.7547,-1.176506 -0.0355,-0.05368 -0.56676,0.332324 -1.18063,0.857779 -2.54676,2.179926 -6.78869,2.811184 -10.21494,1.520124 -3.61036,-1.360443 -6.95544,-5.692778 -6.94643,-8.99659 0.005,-1.78149 0.16971,-2.089412 1.2324,-2.301949 0.65744,-0.131488 0.89572,-0.04493 1.24362,0.451762 0.23669,0.337929 0.43035,0.821582 0.43035,1.074786 0,0.919347 1.08357,3.324873 1.9577,4.346101 0.49233,0.575172 1.53317,1.396923 2.31299,1.826114 1.24795,0.686838 1.6715,0.778508 3.53452,0.764982 3.07006,-0.02228 4.0976,-0.645136 6.70085,-4.061751 1.0519,-1.380566 2.17325,-0.985805 2.966581,1.044358 1.22866,3.144213 4.72156,7.198664 7.71178,8.951595 2.14935,1.259996 4.80124,2.272655 7.09475,2.709222 2.54367,0.484185 7.04104,0.430758 9.30934,-0.110596 5.1828,-1.236924 10.29934,-5.464087 11.88915,-9.822531 1.06154,-2.910208 1.66733,-3.109889 4.41221,-1.454375 2.3758,1.432909 3.90783,1.870326 7.13528,2.037209 3.1712,0.163976 5.59214,-0.307731 8.13214,-1.584504 4.57942,-2.301918 8.31551,-6.931859 9.55298,-11.83852 0.82033,-3.252636 0.0912,-8.112707 -1.63554,-10.901507 -0.88564,-1.430388 -2.15972,-2.796347 -3.03748,-3.256532 -0.60193,-0.315576 -0.71127,-0.298548 -0.99443,0.154864 -0.6385,1.022408 -2.6949,0.407524 -2.6949,-0.805802 0,-0.266023 0.41282,-1.097143 0.9174,-1.846932 1.07855,-1.602724 1.46035,-2.81989 1.46237,-4.662062 0.002,-2.200769 -0.6699,-3.691858 -2.48286,-5.506516 -2.22182,-2.223907 -4.0843,-2.94505 -7.56983,-2.931014 -2.30049,0.0093 -2.65285,0.08204 -4.15707,0.858597 -2.09182,1.079902 -3.29953,2.2905 -3.76859,3.777588 -0.67691,2.146062 -1.01502,2.629733 -1.83832,2.629733 -0.95401,0 -1.29343,-0.413334 -1.5744,-1.917252 -0.46821,-2.506208 -2.35854,-4.408792 -4.9585,-4.990637 -1.58749,-0.355264 -2.67481,-0.189503 -5.03408,0.767434 -1.95401,0.792565 -2.36918,0.445916 -2.53658,-2.117965 -0.24727,-3.787054 -2.5612,-6.565907 -6.4496,-7.745481 -3.60772,-1.094428 -8.06472,0.302781 -10.29866,3.228492 -0.82037,1.074398 -1.4165,2.499648 -1.83364,4.383887 -0.25856,1.167908 -1.16401,1.41605 -2.55747,0.700879 -2.38534,-1.224243 -5.987131,-0.481817 -8.634351,1.77977 -1.96389,1.677813 -2.70623,3.057858 -2.9022,5.39538 -0.12018,1.433513 -0.3057,2.074352 -0.75011,2.590999 l -0.59043,0.686424 -1.8749,-0.614664 c -2.36977,-0.776899 -4.14126,-0.756944 -6.5766,0.07408 -3.36183,1.147178 -5.78772,3.304085 -7.32176,6.509901 -0.75155,1.570588 -0.8229,1.949334 -0.82238,4.365625 5.3e-4,2.462012 0.0594,2.75848 0.8474,4.267179 0.52449,1.004197 1.42806,2.139386 2.37382,2.982328 1.39617,1.244385 1.90695,1.491101 4.11705,1.988579 0.39834,0.08966 0.92193,0.464717 1.16354,0.833451 0.41656,0.635754 0.40719,0.741584 -0.1813,2.046322 -0.77258,1.71288 -0.75935,1.697434 -1.64035,1.915019 -0.69252,0.171032 -0.7276,0.133662 -0.7276,-0.775028 0,-0.58728 -0.12729,-0.954804 -0.33073,-0.954934 -0.1819,-1.14e-4 -1.04511,-0.341307 -1.91823,-0.758203 -3.14304,-1.50073 -5.51473,-4.321321 -6.68225,-7.947009 -0.55881,-1.735408 -0.62521,-2.317639 -0.48571,-4.259162 0.28164,-3.919707 1.60345,-6.71195 4.51864,-9.545336 3.06413,-2.978139 6.00715,-4.22901 10.39173,-4.416798 2.95444,-0.126537 2.98133,-0.133559 3.1464,-0.821809 0.6444,-2.686883 3.69611,-6.265762 6.50566,-7.629483 1.97737,-0.959793 4.910151,-1.663657 6.931921,-1.663657 h 1.46777 l 0.58371,-1.256771 c 0.8768,-1.887816 3.54042,-4.426534 5.64602,-5.381258 3.67715,-1.6673 8.09365,-1.665423 11.59355,0.0049 2.8644,1.36705 5.42371,4.263399 6.26863,7.094135 l 0.33504,1.12249 1.77593,-0.165056 c 3.01635,-0.28034 5.64873,0.596681 7.83236,2.609472 l 1.17158,1.079929 0.98493,-0.834702 c 3.48886,-2.956729 9.16446,-4.045883 13.46355,-2.58367 6.02509,2.049264 9.24111,6.853346 8.56374,12.792461 l -0.2441,2.140265 1.94571,1.977528 c 4.81587,4.894625 6.19402,12.821047 3.36747,19.36796 -3.74877,8.682963 -12.57236,13.944597 -21.55468,12.853371 -2.68815,-0.326573 -3.68947,-0.603168 -5.82372,-1.608685 -0.69682,-0.328298 -1.3041,-0.551874 -1.34952,-0.496838 -0.0454,0.05504 -0.48267,0.873975 -0.97167,1.81986 -1.19606,2.313559 -4.769,5.873353 -7.25978,7.233044 -4.37898,2.390454 -9.63976,3.254994 -15.61041,2.565354 z m 5.0333,-4.191834 c -0.0762,-0.07618 -0.13851,-0.29726 -0.13851,-0.491289 0,-0.462873 0.90923,-0.454364 1.29639,0.01214 0.24144,0.290917 0.16879,0.390536 -0.35826,0.491289 -0.36361,0.06951 -0.72344,0.06405 -0.79962,-0.01212 z m -2.98278,-0.225544 c -0.1819,-0.0734 -0.33073,-0.310404 -0.33073,-0.52668 0,-0.561284 1.16252,-0.343207 1.27347,0.238887 0.0861,0.451892 -0.26808,0.560022 -0.94274,0.287793 z m 6.59499,-0.797145 c 0.0603,-0.312994 0.32438,-0.482836 0.75082,-0.482836 0.94146,0 0.86001,0.770605 -0.093,0.879711 -0.6071,0.06951 -0.73302,-0.0065 -0.65783,-0.396875 z m -9.83614,-0.350544 c 0,-0.604557 0.0998,-0.635968 0.81115,-0.255275 0.71478,0.382542 0.63809,0.784442 -0.14969,0.784442 -0.48507,0 -0.66146,-0.14111 -0.66146,-0.529167 z m -2.46944,-0.705556 c -0.097,-0.09701 -0.17639,-0.332587 -0.17639,-0.523494 0,-0.27305 0.13935,-0.28361 0.65316,-0.0495 0.35924,0.163679 0.59034,0.399251 0.51355,0.523494 -0.1662,0.268928 -0.74211,0.297717 -0.99032,0.0495 z m -2.64583,-1.5875 c -0.097,-0.09701 -0.17639,-0.390933 -0.17639,-0.653153 0,-0.595194 0.69349,-0.381336 1.07499,0.331504 0.21678,0.405067 0.17425,0.498038 -0.22784,0.498038 -0.2719,0 -0.57375,-0.07937 -0.67076,-0.176389 z m -3.70417,-3.704167 c -0.097,-0.09701 -0.17639,-0.413123 -0.17639,-0.702463 0,-0.509318 0.0169,-0.510823 0.52917,-0.04719 0.29104,0.26339 0.52916,0.579499 0.52916,0.702466 0,0.265436 -0.62999,0.299141 -0.88194,0.04719 z M 87.401319,87.95565 c -0.17463,-0.174625 -0.3175,-0.558271 -0.3175,-0.852546 0,-0.521938 0.0143,-0.520713 0.58502,0.04998 0.3943,0.394301 0.49781,0.672238 0.3175,0.852546 -0.18031,0.180308 -0.37103,0.164015 -0.58502,-0.04998 z m 59.809061,0.142272 c -0.1819,-0.0734 -0.33073,-0.250873 -0.33073,-0.394388 0,-0.372301 1.12731,-0.158248 1.2581,0.238887 0.10953,0.332597 -0.31293,0.403434 -0.92737,0.155501 z m 2.72539,-0.03185 c -0.23998,-0.239979 0.14299,-0.586676 0.64805,-0.586676 0.76628,0 0.86967,0.452964 0.13542,0.593325 -0.35869,0.06857 -0.71125,0.06558 -0.78347,-0.0066 z m -5.23893,-0.522486 c -0.25467,-0.05664 -0.46302,-0.213322 -0.46302,-0.348173 0,-0.337978 0.72281,-0.309432 0.93692,0.037 0.22313,0.361045 0.10349,0.439603 -0.4739,0.311171 z m -41.97895,-0.659499 c -0.28502,-0.757891 0.19498,-0.981064 0.68088,-0.316566 0.46304,0.633252 0.44727,0.911879 -0.0516,0.911879 -0.22298,0 -0.50615,-0.267891 -0.62928,-0.595313 z m 50.77634,0.383646 c 0,-0.373904 0.62051,-0.846666 1.11125,-0.846666 0.58736,0 0.63095,0.67777 0.0577,0.897733 -0.58704,0.225272 -1.16898,0.199848 -1.16898,-0.05107 z M 84.918499,85.229322 c -0.41472,-0.910203 -0.0182,-1.195824 0.60059,-0.432591 0.61093,0.753573 0.64332,1.095169 0.10384,1.095169 -0.2214,0 -0.53839,-0.298159 -0.70443,-0.662578 z m -1.27427,-3.438464 c 0,-0.363802 0.11906,-0.661458 0.26459,-0.661458 0.14552,0 0.26458,0.297656 0.26458,0.661458 0,0.363802 -0.11906,0.661459 -0.26458,0.661459 -0.14553,0 -0.26459,-0.297657 -0.26459,-0.661459 z"
       id="path248" /><text
       xml:space="preserve"
       style="font-style:normal;font-variant:normal;font-weight:normal;font-stretch:normal;font-size:12.3108px;font-family:'Segoe Print';-inkscape-font-specification:'Segoe Print';fill:#ffffff;stroke-width:0.203897"
       x="75.871666"
       y="73.542923"
       id="text367"
       transform="scale(1.1258101,0.88824928)"><tspan
         sodipodi:role="line"
         id="tspan365"
         style="font-style:normal;font-variant:normal;font-weight:normal;font-stretch:normal;font-size:12.3108px;font-family:'Segoe Print';-inkscape-font-specification:'Segoe Print';stroke-width:0.203898"
         x="75.871666"
         y="73.542923">send me </tspan><tspan
         sodipodi:role="line"
         style="font-style:normal;font-variant:normal;font-weight:normal;font-stretch:normal;font-size:12.3108px;font-family:'Segoe Print';-inkscape-font-specification:'Segoe Print';stroke-width:0.203898"
         x="75.871666"
         y="88.931419"
         id="tspan419">a message!</tspan></text></g></svg>
